<svg width="56" height="74" viewBox="0 0 56 74" fill="none" xmlns="http://www.w3.org/2000/svg">
<path d="M51.8912 19.7249L27.5907 67.8397L25.539 68.5145L19.1997 70.5992L18.9718 70.6596L5.74149 63.9776L5.37818 62.8728L5.10136 62.0311L4.96296 61.6102L4.09793 58.9798L3.96817 58.5852L3.84707 58.217C3.77234 57.9306 3.68584 57.6676 3.58756 57.4278L2.89536 55.3673L27.1959 7.25247C27.8535 7.03621 28.4412 6.78465 29.0201 6.55056C30.1956 6.00365 31.2136 5.46486 32.2927 4.93507C32.9622 4.64206 33.658 4.41324 34.3708 4.2517C34.7037 4.16033 35.0437 4.09726 35.3873 4.06315C35.5116 4.04051 35.6387 4.03806 35.7638 4.05592C36.1172 4.04474 36.471 4.05494 36.8232 4.08646C41.2828 4.9136 45.4127 6.99939 48.7252 10.0976L48.9431 10.3612C49.1322 10.588 49.3039 10.8287 49.4568 11.0813C49.6603 11.4074 49.8403 11.7475 49.9956 12.0992C50.1745 12.4602 50.3224 12.8357 50.4376 13.2218C50.5413 13.5812 50.6449 13.9407 50.7222 14.3087C50.7995 14.6768 50.868 15.0624 50.9365 15.4479C51.005 15.8335 51.2105 16.9902 51.3646 17.8577C51.4898 18.4887 51.651 19.1121 51.8474 19.7247L51.8912 19.7249Z" fill="#FDBF5A"/>
<g style="mix-blend-mode:multiply" opacity="0.3">
<path d="M30.6871 20.8395C30.7475 21.0674 29.7045 21.3084 29.7045 21.3084L30.2617 17.7731C30.7472 14.6402 31.475 10.0285 32.0229 6.64199C32.1129 6.02941 32.2027 5.4606 32.2924 4.93558C32.9619 4.64257 33.6577 4.41375 34.3705 4.2522C34.7034 4.16084 35.0434 4.09777 35.387 4.06366C35.2722 4.29087 35.1575 4.51807 35.1649 4.85085C34.2049 8.40208 32.3858 14.3491 31.4872 17.8656C30.9634 19.641 30.6698 20.7869 30.6871 20.8395Z" fill="#F7A27E"/>
</g>
<g style="mix-blend-mode:multiply" opacity="0.3">
<path d="M50.4897 13.2488C50.1381 13.5976 49.7424 13.99 49.3203 14.4349L41.0822 22.7115C39.403 24.386 38.1983 25.642 38.1983 25.642C38.1983 25.642 37.7732 24.6596 37.9924 24.5729C38.2117 24.4862 38.8899 23.4907 40.1222 21.9196C42.7454 18.5064 47.0764 12.8409 48.9427 10.3616C49.1318 10.5884 49.3036 10.8291 49.4565 11.0817C49.66 11.4078 49.84 11.748 49.9953 12.0997C50.1935 12.4674 50.359 12.8519 50.4897 13.2488Z" fill="#F7A27E"/>
</g>
<path d="M21.9668 29.2454L25.4278 17.8323C29.2396 17.3027 33.1222 17.9485 36.5573 19.6834C39.9924 21.4183 42.8166 24.1598 44.6528 27.5419L37.4323 37.4951L21.9668 29.2454Z" fill="black"/>
<path d="M21.9668 29.2454L25.4278 17.8323C29.2396 17.3027 33.1222 17.9485 36.5573 19.6834C39.9924 21.4183 42.8166 24.1598 44.6528 27.5419L37.4323 37.4951L21.9668 29.2454Z" fill="black"/>
<path d="M21.9668 29.2454L25.4278 17.8323C29.2396 17.3027 33.1222 17.9485 36.5573 19.6834C39.9924 21.4183 42.8166 24.1598 44.6528 27.5419L37.4323 37.4951L21.9668 29.2454Z" fill="url(#paint0_linear)"/>
<path d="M26.345 64.0524C26.2655 64.2097 24.3148 68.0722 17.3239 64.5414L12.1506 61.9287C5.15973 58.3979 7.0231 54.4913 7.10254 54.334L26.345 64.0524Z" fill="#13151A"/>
<g style="mix-blend-mode:screen">
<path style="mix-blend-mode:screen" d="M26.345 64.0524C26.2655 64.2097 24.3148 68.0722 17.3239 64.5414L12.1506 61.9287C5.15973 58.3979 7.0231 54.4913 7.10254 54.334L26.345 64.0524Z" fill="url(#paint1_linear)"/>
</g>
<path d="M19.1511 54.3649L18.2248 53.8971L18.2336 53.8796L19.1511 54.3649Z" fill="#FDBF5A"/>
<path d="M26.3449 64.0524C25.6299 65.468 6.40494 55.7584 7.11992 54.3428L10.508 50.1533L18.2598 53.9149L20.0949 54.8417L27.7231 58.8479L26.3449 64.0524Z" fill="#FDBF5A"/>
<path d="M20.1037 54.8243L20.0949 54.8418L19.1511 54.3651L20.1037 54.8243Z" fill="#FDBF5A"/>
<path d="M10.307 50.0301L9.29439 47.0838L17.872 30.6213L21.8413 27.8003L10.307 50.0301Z" fill="#1B1B1B"/>
<path d="M10.307 50.0301L9.29439 47.0838L17.872 30.6213L21.8413 27.8003L10.307 50.0301Z" fill="url(#paint2_linear)"/>
<path d="M17.2046 39.8039L12.8471 39.007L14.7361 35.2668L17.9637 38.3008L17.2046 39.8039Z" fill="#FDBF5A"/>
<path d="M28.0463 58.9894L31.036 58.0645L39.1767 41.3814L39.0913 36.5125L28.0463 58.9894Z" fill="#1B1B1B"/>
<path d="M28.0463 58.9894L31.036 58.0645L39.1767 41.3814L39.0913 36.5125L28.0463 58.9894Z" fill="url(#paint3_linear)"/>
<path d="M32.2001 47.3774L35.4103 50.4026L37.2993 46.6625L32.9592 45.8744L32.2001 47.3774Z" fill="#FDBF5A"/>
<path d="M27.7318 58.8305C26.8491 60.5782 9.58163 51.8572 10.4643 50.1095L21.7893 27.6862C21.9532 27.3617 22.2392 27.1156 22.5845 27.0021C22.9298 26.8885 23.3061 26.9168 23.6306 27.0807L38.4338 34.5571C38.5971 34.6366 38.7429 34.7479 38.8629 34.8843C38.9828 35.0207 39.0744 35.1796 39.1324 35.3518C39.1903 35.5239 39.2135 35.7059 39.2005 35.8871C39.1876 36.0683 39.1387 36.2451 39.0568 36.4072L27.7318 58.8305Z" fill="#FDBF5A"/>
<path d="M5.67207 63.7677L3.58735 57.4284C4.23951 57.5582 4.83827 57.8791 5.30733 58.3504C5.77639 58.8217 6.0945 59.422 6.22111 60.0748C6.4965 60.6775 6.59121 61.3471 6.49376 62.0026C6.39631 62.6581 6.11089 63.2712 5.67207 63.7677Z" fill="#FF7910"/>
<path d="M25.5387 68.515L19.1994 70.5998C19.3386 69.9519 19.6627 69.3583 20.1324 68.8908C20.6021 68.4233 21.1972 68.1021 21.8457 67.966C22.4463 67.6805 23.1182 67.5802 23.7759 67.678C24.4336 67.7758 25.0473 68.0672 25.5387 68.515Z" fill="#FF7910"/>
<path d="M51.3994 17.8319C50.46 17.0944 49.7751 16.0811 49.4409 14.9344L49.2854 14.4172C48.9087 13.3203 48.951 12.1228 49.4041 11.0552C49.6076 11.3813 49.7876 11.7214 49.9428 12.0731C50.1217 12.4341 50.2696 12.8096 50.3849 13.1957C50.4885 13.5551 50.5921 13.9146 50.6695 14.2826C50.7468 14.6507 50.8153 15.0363 50.8838 15.4218C50.9523 15.8074 51.2277 16.9994 51.3994 17.8319Z" fill="#F7A27E"/>
<path d="M35.2349 4.88607C34.5167 5.60861 33.6298 6.14073 32.6542 6.4343L32.0318 6.62443C31.0438 6.89213 29.9986 6.86048 29.0287 6.53351C30.2042 5.9866 31.2222 5.4478 32.3013 4.91802C32.9708 4.62501 33.6666 4.39619 34.3794 4.23464C34.7099 4.14966 35.047 4.09244 35.387 4.06358C35.5114 4.04093 35.6385 4.03849 35.7636 4.05634C35.6444 4.36537 35.4646 4.64747 35.2349 4.88607Z" fill="#F7A27E"/>
<defs>
<linearGradient id="paint0_linear" x1="23.4947" y1="21.6598" x2="42.7371" y2="31.3782" gradientUnits="userSpaceOnUse">
<stop stop-color="white" stop-opacity="0.3"/>
<stop offset="0.21" stop-color="#E1E1E1" stop-opacity="0.26"/>
<stop offset="0.55" stop-color="#8E8E8E" stop-opacity="0.17"/>
<stop offset="0.97" stop-color="#090909" stop-opacity="0.01"/>
<stop offset="1" stop-opacity="0"/>
</linearGradient>
<linearGradient id="paint1_linear" x1="-24.298" y1="196.841" x2="187.561" y2="303.842" gradientUnits="userSpaceOnUse">
<stop stop-color="white" stop-opacity="0.3"/>
<stop offset="0.21" stop-color="#E1E1E1" stop-opacity="0.26"/>
<stop offset="0.55" stop-color="#8E8E8E" stop-opacity="0.17"/>
<stop offset="0.97" stop-color="#090909" stop-opacity="0.01"/>
<stop offset="1" stop-opacity="0"/>
</linearGradient>
<linearGradient id="paint2_linear" x1="-216.844" y1="500.339" x2="-214.093" y2="501.729" gradientUnits="userSpaceOnUse">
<stop stop-color="white" stop-opacity="0.3"/>
<stop offset="0.21" stop-color="#E1E1E1" stop-opacity="0.26"/>
<stop offset="0.55" stop-color="#8E8E8E" stop-opacity="0.17"/>
<stop offset="0.97" stop-color="#090909" stop-opacity="0.01"/>
<stop offset="1" stop-opacity="0"/>
</linearGradient>
<linearGradient id="paint3_linear" x1="-169.812" y1="524.093" x2="-171.751" y2="523.114" gradientUnits="userSpaceOnUse">
<stop stop-color="white" stop-opacity="0.3"/>
<stop offset="0.21" stop-color="#E1E1E1" stop-opacity="0.26"/>
<stop offset="0.55" stop-color="#8E8E8E" stop-opacity="0.17"/>
<stop offset="0.97" stop-color="#090909" stop-opacity="0.01"/>
<stop offset="1" stop-opacity="0"/>
</linearGradient>
</defs>
</svg>
