<svg width="391" height="226" viewBox="0 0 391 226" fill="none" xmlns="http://www.w3.org/2000/svg">
<g filter="url(#filter0_d)">
<rect x="22" y="17" width="347" height="182" rx="10" fill="white"/>
</g>
<path d="M51.1123 108.515L51.8711 101.07H59.5205V102.824H53.481L53.0298 106.895C53.7612 106.464 54.5918 106.249 55.5215 106.249C56.8818 106.249 57.9619 106.7 58.7617 107.602C59.5615 108.498 59.9614 109.711 59.9614 111.242C59.9614 112.78 59.5444 113.994 58.7104 114.882C57.8833 115.764 56.7246 116.205 55.2344 116.205C53.915 116.205 52.8384 115.839 52.0044 115.108C51.1704 114.376 50.6953 113.365 50.5791 112.073H52.3735C52.4897 112.927 52.7939 113.573 53.2861 114.011C53.7783 114.441 54.4277 114.657 55.2344 114.657C56.1162 114.657 56.8066 114.356 57.3057 113.754C57.8115 113.153 58.0645 112.322 58.0645 111.263C58.0645 110.265 57.791 109.465 57.2441 108.863C56.7041 108.255 55.9829 107.951 55.0806 107.951C54.2534 107.951 53.604 108.132 53.1323 108.494L52.6299 108.904L51.1123 108.515ZM62.9043 108.515L63.6631 101.07H71.3125V102.824H65.2729L64.8218 106.895C65.5532 106.464 66.3838 106.249 67.3135 106.249C68.6738 106.249 69.7539 106.7 70.5537 107.602C71.3535 108.498 71.7534 109.711 71.7534 111.242C71.7534 112.78 71.3364 113.994 70.5024 114.882C69.6753 115.764 68.5166 116.205 67.0264 116.205C65.707 116.205 64.6304 115.839 63.7964 115.108C62.9624 114.376 62.4873 113.365 62.3711 112.073H64.1655C64.2817 112.927 64.5859 113.573 65.0781 114.011C65.5703 114.441 66.2197 114.657 67.0264 114.657C67.9082 114.657 68.5986 114.356 69.0977 113.754C69.6035 113.153 69.8564 112.322 69.8564 111.263C69.8564 110.265 69.583 109.465 69.0361 108.863C68.4961 108.255 67.7749 107.951 66.8726 107.951C66.0454 107.951 65.396 108.132 64.9243 108.494L64.4219 108.904L62.9043 108.515ZM81.833 110.986H83.9043V112.534H81.833V116H79.9258V112.534H73.1274V111.417L79.813 101.07H81.833V110.986ZM75.2808 110.986H79.9258V103.665L79.7002 104.075L75.2808 110.986ZM86.4883 108.515L87.2471 101.07H94.8965V102.824H88.8569L88.4058 106.895C89.1372 106.464 89.9678 106.249 90.8975 106.249C92.2578 106.249 93.3379 106.7 94.1377 107.602C94.9375 108.498 95.3374 109.711 95.3374 111.242C95.3374 112.78 94.9204 113.994 94.0864 114.882C93.2593 115.764 92.1006 116.205 90.6104 116.205C89.291 116.205 88.2144 115.839 87.3804 115.108C86.5464 114.376 86.0713 113.365 85.9551 112.073H87.7495C87.8657 112.927 88.1699 113.573 88.6621 114.011C89.1543 114.441 89.8037 114.657 90.6104 114.657C91.4922 114.657 92.1826 114.356 92.6816 113.754C93.1875 113.153 93.4404 112.322 93.4404 111.263C93.4404 110.265 93.167 109.465 92.6201 108.863C92.0801 108.255 91.3589 107.951 90.4565 107.951C89.6294 107.951 88.98 108.132 88.5083 108.494L88.0059 108.904L86.4883 108.515ZM128.027 116H118.245V114.636L123.413 108.894C124.178 108.026 124.705 107.322 124.992 106.782C125.286 106.235 125.433 105.671 125.433 105.09C125.433 104.311 125.197 103.671 124.725 103.172C124.253 102.673 123.625 102.424 122.838 102.424C121.895 102.424 121.16 102.694 120.634 103.234C120.114 103.767 119.854 104.512 119.854 105.469H117.958C117.958 104.095 118.398 102.984 119.28 102.137C120.169 101.289 121.355 100.865 122.838 100.865C124.226 100.865 125.323 101.231 126.13 101.962C126.937 102.687 127.34 103.654 127.34 104.864C127.34 106.334 126.403 108.084 124.53 110.114L120.531 114.452H128.027V116ZM132.795 107.612H134.22C135.116 107.599 135.82 107.363 136.333 106.905C136.845 106.447 137.102 105.828 137.102 105.049C137.102 103.299 136.23 102.424 134.487 102.424C133.667 102.424 133.01 102.66 132.518 103.131C132.033 103.596 131.79 104.215 131.79 104.987H129.893C129.893 103.805 130.324 102.824 131.185 102.044C132.053 101.258 133.154 100.865 134.487 100.865C135.895 100.865 136.999 101.238 137.799 101.983C138.599 102.728 138.999 103.764 138.999 105.09C138.999 105.739 138.787 106.368 138.363 106.977C137.946 107.585 137.375 108.04 136.65 108.34C137.471 108.6 138.103 109.031 138.547 109.632C138.999 110.234 139.224 110.969 139.224 111.837C139.224 113.177 138.787 114.24 137.912 115.026C137.037 115.812 135.898 116.205 134.497 116.205C133.096 116.205 131.954 115.826 131.072 115.067C130.197 114.308 129.76 113.307 129.76 112.062H131.667C131.667 112.849 131.923 113.478 132.436 113.949C132.949 114.421 133.636 114.657 134.497 114.657C135.413 114.657 136.114 114.417 136.599 113.939C137.084 113.46 137.327 112.773 137.327 111.878C137.327 111.01 137.061 110.343 136.527 109.878C135.994 109.414 135.225 109.174 134.22 109.161H132.795V107.612ZM151.19 109.632C151.19 111.854 150.811 113.505 150.052 114.585C149.293 115.665 148.107 116.205 146.494 116.205C144.901 116.205 143.722 115.679 142.957 114.626C142.191 113.566 141.794 111.987 141.767 109.889V107.356C141.767 105.162 142.146 103.531 142.905 102.465C143.664 101.398 144.854 100.865 146.474 100.865C148.08 100.865 149.263 101.381 150.021 102.414C150.78 103.439 151.17 105.025 151.19 107.171V109.632ZM149.293 107.038C149.293 105.432 149.068 104.263 148.617 103.531C148.166 102.793 147.451 102.424 146.474 102.424C145.503 102.424 144.795 102.79 144.351 103.521C143.907 104.252 143.678 105.377 143.664 106.895V109.93C143.664 111.543 143.896 112.736 144.361 113.508C144.833 114.274 145.544 114.657 146.494 114.657C147.431 114.657 148.125 114.294 148.576 113.57C149.034 112.845 149.273 111.704 149.293 110.145V107.038ZM162.982 109.632C162.982 111.854 162.603 113.505 161.844 114.585C161.085 115.665 159.899 116.205 158.286 116.205C156.693 116.205 155.514 115.679 154.749 114.626C153.983 113.566 153.586 111.987 153.559 109.889V107.356C153.559 105.162 153.938 103.531 154.697 102.465C155.456 101.398 156.646 100.865 158.266 100.865C159.872 100.865 161.055 101.381 161.813 102.414C162.572 103.439 162.962 105.025 162.982 107.171V109.632ZM161.085 107.038C161.085 105.432 160.86 104.263 160.409 103.531C159.958 102.793 159.243 102.424 158.266 102.424C157.295 102.424 156.587 102.79 156.143 103.521C155.699 104.252 155.47 105.377 155.456 106.895V109.93C155.456 111.543 155.688 112.736 156.153 113.508C156.625 114.274 157.336 114.657 158.286 114.657C159.223 114.657 159.917 114.294 160.368 113.57C160.826 112.845 161.065 111.704 161.085 110.145V107.038ZM189.007 107.612H190.432C191.328 107.599 192.032 107.363 192.544 106.905C193.057 106.447 193.313 105.828 193.313 105.049C193.313 103.299 192.442 102.424 190.699 102.424C189.878 102.424 189.222 102.66 188.73 103.131C188.245 103.596 188.002 104.215 188.002 104.987H186.105C186.105 103.805 186.536 102.824 187.397 102.044C188.265 101.258 189.366 100.865 190.699 100.865C192.107 100.865 193.211 101.238 194.011 101.983C194.811 102.728 195.21 103.764 195.21 105.09C195.21 105.739 194.999 106.368 194.575 106.977C194.158 107.585 193.587 108.04 192.862 108.34C193.683 108.6 194.315 109.031 194.759 109.632C195.21 110.234 195.436 110.969 195.436 111.837C195.436 113.177 194.999 114.24 194.124 115.026C193.249 115.812 192.11 116.205 190.709 116.205C189.308 116.205 188.166 115.826 187.284 115.067C186.409 114.308 185.972 113.307 185.972 112.062H187.879C187.879 112.849 188.135 113.478 188.648 113.949C189.161 114.421 189.848 114.657 190.709 114.657C191.625 114.657 192.326 114.417 192.811 113.939C193.296 113.46 193.539 112.773 193.539 111.878C193.539 111.01 193.272 110.343 192.739 109.878C192.206 109.414 191.437 109.174 190.432 109.161H189.007V107.612ZM206.049 110.986H208.12V112.534H206.049V116H204.142V112.534H197.343V111.417L204.029 101.07H206.049V110.986ZM199.497 110.986H204.142V103.665L203.916 104.075L199.497 110.986ZM212.591 107.612H214.016C214.912 107.599 215.616 107.363 216.128 106.905C216.641 106.447 216.897 105.828 216.897 105.049C216.897 103.299 216.026 102.424 214.283 102.424C213.462 102.424 212.806 102.66 212.314 103.131C211.829 103.596 211.586 104.215 211.586 104.987H209.689C209.689 103.805 210.12 102.824 210.981 102.044C211.849 101.258 212.95 100.865 214.283 100.865C215.691 100.865 216.795 101.238 217.595 101.983C218.395 102.728 218.794 103.764 218.794 105.09C218.794 105.739 218.583 106.368 218.159 106.977C217.742 107.585 217.171 108.04 216.446 108.34C217.267 108.6 217.899 109.031 218.343 109.632C218.794 110.234 219.02 110.969 219.02 111.837C219.02 113.177 218.583 114.24 217.708 115.026C216.833 115.812 215.694 116.205 214.293 116.205C212.892 116.205 211.75 115.826 210.868 115.067C209.993 114.308 209.556 113.307 209.556 112.062H211.463C211.463 112.849 211.719 113.478 212.232 113.949C212.745 114.421 213.432 114.657 214.293 114.657C215.209 114.657 215.91 114.417 216.395 113.939C216.88 113.46 217.123 112.773 217.123 111.878C217.123 111.01 216.856 110.343 216.323 109.878C215.79 109.414 215.021 109.174 214.016 109.161H212.591V107.612ZM231.407 116H221.625V114.636L226.792 108.894C227.558 108.026 228.084 107.322 228.372 106.782C228.666 106.235 228.812 105.671 228.812 105.09C228.812 104.311 228.577 103.671 228.105 103.172C227.633 102.673 227.004 102.424 226.218 102.424C225.275 102.424 224.54 102.694 224.014 103.234C223.494 103.767 223.234 104.512 223.234 105.469H221.337C221.337 104.095 221.778 102.984 222.66 102.137C223.549 101.289 224.735 100.865 226.218 100.865C227.606 100.865 228.703 101.231 229.51 101.962C230.316 102.687 230.72 103.654 230.72 104.864C230.72 106.334 229.783 108.084 227.91 110.114L223.911 114.452H231.407V116ZM262.261 110.986H264.332V112.534H262.261V116H260.354V112.534H253.555V111.417L260.241 101.07H262.261V110.986ZM255.708 110.986H260.354V103.665L260.128 104.075L255.708 110.986ZM266.916 108.515L267.675 101.07H275.324V102.824H269.285L268.833 106.895C269.565 106.464 270.396 106.249 271.325 106.249C272.686 106.249 273.766 106.7 274.565 107.602C275.365 108.498 275.765 109.711 275.765 111.242C275.765 112.78 275.348 113.994 274.514 114.882C273.687 115.764 272.528 116.205 271.038 116.205C269.719 116.205 268.642 115.839 267.808 115.108C266.974 114.376 266.499 113.365 266.383 112.073H268.177C268.293 112.927 268.598 113.573 269.09 114.011C269.582 114.441 270.231 114.657 271.038 114.657C271.92 114.657 272.61 114.356 273.109 113.754C273.615 113.153 273.868 112.322 273.868 111.263C273.868 110.265 273.595 109.465 273.048 108.863C272.508 108.255 271.787 107.951 270.884 107.951C270.057 107.951 269.408 108.132 268.936 108.494L268.434 108.904L266.916 108.515ZM287.619 116H277.836V114.636L283.004 108.894C283.77 108.026 284.296 107.322 284.583 106.782C284.877 106.235 285.024 105.671 285.024 105.09C285.024 104.311 284.789 103.671 284.317 103.172C283.845 102.673 283.216 102.424 282.43 102.424C281.487 102.424 280.752 102.694 280.226 103.234C279.706 103.767 279.446 104.512 279.446 105.469H277.549C277.549 104.095 277.99 102.984 278.872 102.137C279.761 101.289 280.947 100.865 282.43 100.865C283.818 100.865 284.915 101.231 285.722 101.962C286.528 102.687 286.932 103.654 286.932 104.864C286.932 106.334 285.995 108.084 284.122 110.114L280.123 114.452H287.619V116ZM295.863 116H293.956V103.357L290.131 104.762V103.039L295.565 100.999H295.863V116Z" fill="black"/>
<path d="M327.059 51.3613C327.059 52.6309 326.842 53.5742 326.408 54.1914C325.975 54.8086 325.297 55.1172 324.375 55.1172C323.465 55.1172 322.791 54.8164 322.354 54.2148C321.916 53.6094 321.689 52.707 321.674 51.5078V50.0605C321.674 48.8066 321.891 47.875 322.324 47.2656C322.758 46.6562 323.438 46.3516 324.363 46.3516C325.281 46.3516 325.957 46.6465 326.391 47.2363C326.824 47.8223 327.047 48.7285 327.059 49.9551V51.3613ZM325.975 49.8789C325.975 48.9609 325.846 48.293 325.588 47.875C325.33 47.4531 324.922 47.2422 324.363 47.2422C323.809 47.2422 323.404 47.4512 323.15 47.8691C322.896 48.2871 322.766 48.9297 322.758 49.7969V51.5312C322.758 52.4531 322.891 53.1348 323.156 53.5762C323.426 54.0137 323.832 54.2324 324.375 54.2324C324.91 54.2324 325.307 54.0254 325.564 53.6113C325.826 53.1973 325.963 52.5449 325.975 51.6543V49.8789ZM328.945 50.7227L329.379 46.4688H333.75V47.4707H330.299L330.041 49.7969C330.459 49.5508 330.934 49.4277 331.465 49.4277C332.242 49.4277 332.859 49.6855 333.316 50.2012C333.773 50.7129 334.002 51.4062 334.002 52.2812C334.002 53.1602 333.764 53.8535 333.287 54.3613C332.814 54.8652 332.152 55.1172 331.301 55.1172C330.547 55.1172 329.932 54.9082 329.455 54.4902C328.979 54.0723 328.707 53.4941 328.641 52.7559H329.666C329.732 53.2441 329.906 53.6133 330.188 53.8633C330.469 54.1094 330.84 54.2324 331.301 54.2324C331.805 54.2324 332.199 54.0605 332.484 53.7168C332.773 53.373 332.918 52.8984 332.918 52.293C332.918 51.7227 332.762 51.2656 332.449 50.9219C332.141 50.5742 331.729 50.4004 331.213 50.4004C330.74 50.4004 330.369 50.5039 330.1 50.7109L329.812 50.9453L328.945 50.7227ZM335.514 55.7324H334.582L338.145 46.4688H339.07L335.514 55.7324ZM345.48 51.3613C345.48 52.6309 345.264 53.5742 344.83 54.1914C344.396 54.8086 343.719 55.1172 342.797 55.1172C341.887 55.1172 341.213 54.8164 340.775 54.2148C340.338 53.6094 340.111 52.707 340.096 51.5078V50.0605C340.096 48.8066 340.312 47.875 340.746 47.2656C341.18 46.6562 341.859 46.3516 342.785 46.3516C343.703 46.3516 344.379 46.6465 344.812 47.2363C345.246 47.8223 345.469 48.7285 345.48 49.9551V51.3613ZM344.396 49.8789C344.396 48.9609 344.268 48.293 344.01 47.875C343.752 47.4531 343.344 47.2422 342.785 47.2422C342.23 47.2422 341.826 47.4512 341.572 47.8691C341.318 48.2871 341.188 48.9297 341.18 49.7969V51.5312C341.18 52.4531 341.312 53.1348 341.578 53.5762C341.848 54.0137 342.254 54.2324 342.797 54.2324C343.332 54.2324 343.729 54.0254 343.986 53.6113C344.248 53.1973 344.385 52.5449 344.396 51.6543V49.8789ZM352.043 48.6953C352.043 49.1211 351.93 49.5 351.703 49.832C351.48 50.1641 351.178 50.4238 350.795 50.6113C351.24 50.8027 351.592 51.082 351.85 51.4492C352.111 51.8164 352.242 52.2324 352.242 52.6973C352.242 53.4355 351.992 54.0234 351.492 54.4609C350.996 54.8984 350.342 55.1172 349.529 55.1172C348.709 55.1172 348.051 54.8984 347.555 54.4609C347.062 54.0195 346.816 53.4316 346.816 52.6973C346.816 52.2363 346.941 51.8203 347.191 51.4492C347.445 51.0781 347.795 50.7969 348.24 50.6055C347.861 50.418 347.562 50.1582 347.344 49.8262C347.125 49.4941 347.016 49.1172 347.016 48.6953C347.016 47.9766 347.246 47.4062 347.707 46.9844C348.168 46.5625 348.775 46.3516 349.529 46.3516C350.279 46.3516 350.885 46.5625 351.346 46.9844C351.811 47.4062 352.043 47.9766 352.043 48.6953ZM351.158 52.6738C351.158 52.1973 351.006 51.8086 350.701 51.5078C350.4 51.207 350.006 51.0566 349.518 51.0566C349.029 51.0566 348.637 51.2051 348.34 51.502C348.047 51.7988 347.9 52.1895 347.9 52.6738C347.9 53.1582 348.043 53.5391 348.328 53.8164C348.617 54.0938 349.018 54.2324 349.529 54.2324C350.037 54.2324 350.436 54.0938 350.725 53.8164C351.014 53.5352 351.158 53.1543 351.158 52.6738ZM349.529 47.2422C349.104 47.2422 348.758 47.375 348.492 47.6406C348.23 47.9023 348.1 48.2598 348.1 48.7129C348.1 49.1465 348.229 49.498 348.486 49.7676C348.748 50.0332 349.096 50.166 349.529 50.166C349.963 50.166 350.309 50.0332 350.566 49.7676C350.828 49.498 350.959 49.1465 350.959 48.7129C350.959 48.2793 350.824 47.9258 350.555 47.6523C350.285 47.3789 349.943 47.2422 349.529 47.2422Z" fill="black"/>
<g style="mix-blend-mode:multiply">
<circle cx="321" cy="169" r="14" fill="#F1F1F1"/>
</g>
<g style="mix-blend-mode:multiply">
<circle cx="339" cy="169" r="14" fill="#F1F1F1"/>
</g>
<path fill-rule="evenodd" clip-rule="evenodd" d="M66.5 68C75.6127 68 83 60.6127 83 51.5C83 49.5863 82.6742 47.7487 82.0751 46.0396L61.0396 67.0751C62.7487 67.6742 64.5863 68 66.5 68ZM53.1668 61.2217L61.2627 53.1258L51.9148 43.7779C50.6924 46.0819 50 48.7101 50 51.5C50 55.1349 51.1754 58.4952 53.1668 61.2217ZM58.7779 36.9148L68.1258 46.2627L76.2217 38.1668C73.4952 36.1754 70.1349 35 66.5 35C63.7101 35 61.0819 35.6924 58.7779 36.9148Z" fill="#FDBF5A"/>
<path d="M55.4387 40.4805L57.4804 42.5222" stroke="#FDBF5A" stroke-width="2"/>
<path d="M59.8064 61.4485L57.7647 63.4902" stroke="#FDBF5A" stroke-width="2"/>
<path d="M63.446 57.5662L61.4044 59.6078" stroke="#FDBF5A" stroke-width="2"/>
<path d="M67.0859 53.6838L65.0443 55.7255" stroke="#FDBF5A" stroke-width="2"/>
<path d="M74.3652 45.9192L72.3235 47.9609" stroke="#FDBF5A" stroke-width="2"/>
<path d="M78.0049 42.0369L75.9632 44.0785" stroke="#FDBF5A" stroke-width="2"/>
<path d="M59.2207 44.2207L61.2624 46.2624" stroke="#FDBF5A" stroke-width="2"/>
<path d="M63.3457 48.3457L65.3874 50.3874" stroke="#FDBF5A" stroke-width="2"/>
<path d="M70.7256 49.8015L68.6839 51.8432" stroke="#FDBF5A" stroke-width="2"/>
<path d="M61.5 182.5H67.5V160.5H79C79.1667 159.333 78.5 156.8 74.5 156H61.5V182.5Z" fill="#E1E1E1"/>
<path d="M53 156H59V160.5H50C50 159.333 50.6 156.8 53 156Z" fill="#E1E1E1"/>
<path d="M53 182H59V177.5H50C50 178.667 50.6 181.2 53 182Z" fill="#E1E1E1"/>
<path d="M76 182H70V177.5H79C79 178.667 78.4 181.2 76 182Z" fill="#E1E1E1"/>
<path d="M50 162.5H59V167.5H50V162.5Z" fill="#E1E1E1"/>
<path d="M70 162.5H79V167.5H70V162.5Z" fill="#E1E1E1"/>
<path d="M50 169.5H59V174.5H50V169.5Z" fill="#E1E1E1"/>
<path d="M70 169.5H79V174.5H70V169.5Z" fill="#E1E1E1"/>
<defs>
<filter id="filter0_d" x="0" y="0" width="391" height="226" filterUnits="userSpaceOnUse" color-interpolation-filters="sRGB">
<feFlood flood-opacity="0" result="BackgroundImageFix"/>
<feColorMatrix in="SourceAlpha" type="matrix" values="0 0 0 0 0 0 0 0 0 0 0 0 0 0 0 0 0 0 127 0"/>
<feMorphology radius="2" operator="dilate" in="SourceAlpha" result="effect1_dropShadow"/>
<feOffset dy="5"/>
<feGaussianBlur stdDeviation="10"/>
<feColorMatrix type="matrix" values="0 0 0 0 0 0 0 0 0 0 0 0 0 0 0 0 0 0 0.1 0"/>
<feBlend mode="normal" in2="BackgroundImageFix" result="effect1_dropShadow"/>
<feBlend mode="normal" in="SourceGraphic" in2="effect1_dropShadow" result="shape"/>
</filter>
</defs>
</svg>
