<svg width="375" height="243" viewBox="0 0 375 243" fill="none" xmlns="http://www.w3.org/2000/svg">
<path d="M95.465 154.841C90.6187 153.797 88.2411 145.802 88.9687 140.898C89.4822 138.46 90.6527 136.209 92.3527 134.392C94.0526 132.575 96.2168 131.262 98.6092 130.595C103.451 129.327 108.585 129.855 113.07 132.081C116.669 133.725 120.008 136.151 123.919 136.725C130.792 137.755 136.912 132.955 142.849 129.238C147.358 126.395 152.347 124.021 157.674 123.695C163.001 123.369 168.705 125.508 171.563 130.034C172.745 131.899 173.447 134.155 175.175 135.525C179.073 138.642 184.53 135.381 189.285 133.934C192.409 132.877 195.809 133.002 198.848 134.286C200.333 134.96 201.604 136.033 202.521 137.386C203.438 138.739 203.965 140.32 204.045 141.955C203.974 143.387 203.613 144.79 202.983 146.078C202.353 147.365 201.468 148.51 200.381 149.441C193.43 155.871 182.737 155.675 173.434 154.032C164.131 152.389 154.543 149.702 145.448 152.402C142.524 153.276 139.77 154.684 136.795 155.349C130.519 156.771 123.997 154.749 117.566 155.102C110.056 155.506 101.792 159.014 95.478 154.841" fill="#F1F0EE"/>
<path d="M-42.9459 206.737C-49.8191 205.615 -52.9893 198.572 -51.729 194.373C-50.4687 190.173 -44.5311 186.912 -37.7489 185.96C-30.8321 185.102 -23.8119 185.774 -17.1815 187.93C-12.1013 189.521 -7.39799 191.764 -1.85012 192.455C7.92036 193.668 16.8593 189.847 25.3305 186.86C32.174 184.284 39.3971 182.869 46.7035 182.674C54.3042 182.674 62.3856 184.76 66.3224 188.804C67.9465 190.473 68.921 192.455 71.3116 193.734C76.7555 196.603 84.6681 194.047 91.4892 193.003C96.0276 192.236 100.679 192.495 105.106 193.76C109.276 195.064 112.459 197.79 112.381 200.633C112.381 203.124 109.783 205.355 106.769 206.946C96.6733 212.163 81.4459 211.524 68.2323 209.672C55.0188 207.82 41.3245 205.028 28.3318 206.946C24.1352 207.559 20.1725 208.654 15.9239 209.098C6.93292 210.024 -2.26589 207.976 -11.4777 207.989C-22.2096 207.989 -34.072 210.598 -42.92 206.685" fill="#F1F0EE"/>
<path d="M270.684 238.743C263.811 237.622 260.641 230.579 261.914 226.366C263.187 222.153 269.151 218.919 275.946 217.901C282.862 217.039 289.882 217.707 296.514 219.858C301.594 221.449 306.297 223.771 311.845 224.397C321.603 225.597 330.554 221.788 339.026 218.788C345.847 216.236 353.043 214.839 360.321 214.654C367.921 214.654 375.99 216.728 379.94 220.784C381.564 222.453 382.538 224.436 384.929 225.714C390.373 228.583 398.285 226.014 405.093 224.984C409.631 224.22 414.281 224.474 418.71 225.727C422.893 227.031 426.077 229.77 425.999 232.6C425.934 235.105 423.465 237.335 420.386 238.926C410.29 244.143 395.063 243.504 381.837 241.652C368.61 239.8 354.942 237.009 341.949 238.926C337.752 239.539 333.79 240.635 329.528 241.078C320.55 242.004 311.338 239.956 302.139 239.956C291.408 239.956 279.532 242.565 270.684 238.717" fill="#F1F0EE"/>
<path d="M201.836 112.231C194.04 110.561 190.221 97.6752 191.442 89.7844C192.663 81.8937 199.328 75.4376 206.968 73.1943C214.608 70.951 222.975 72.2813 230.225 75.5941C236.02 78.2026 241.399 82.1154 247.687 83.0806C258.744 84.737 268.683 77.0027 278.142 71.0292C285.457 66.4383 293.564 62.6037 302.062 62.056C310.559 61.5082 319.823 64.9644 324.409 72.2422C326.306 75.255 327.462 78.8809 330.23 81.0981C336.479 86.1195 345.301 80.8633 352.954 78.4896C357.979 76.7871 363.452 76.9912 368.337 79.0635C373.092 81.2807 376.782 86.1195 376.808 91.3887C376.808 96.0449 374.119 100.323 370.702 103.479C359.502 113.809 342.313 113.509 327.319 110.861C312.326 108.214 296.812 103.87 282.222 108.253C277.518 109.648 273.127 111.931 268.294 113C258.198 115.283 247.687 112.022 237.358 112.596C225.262 113.261 211.957 118.869 201.836 112.179" fill="#F1F0EE"/>
<path d="M56.5635 71.7998C57.3692 72.1066 58.1526 72.4689 58.908 72.8843C59.6721 73.3054 60.4042 73.782 61.0984 74.3103C61.8115 74.8207 62.4713 75.4016 63.0677 76.0442C63.6851 76.6842 64.178 77.4334 64.5213 78.2535L64.0055 78.153C64.3644 77.8069 64.7496 77.489 65.1577 77.2024C65.558 76.9139 65.984 76.6629 66.4304 76.4526C66.8778 76.2411 67.3506 76.0881 67.8371 75.9974C68.3217 75.9134 68.8181 75.927 69.2974 76.0375C68.8232 76.024 68.35 76.0896 67.8974 76.2317C67.4567 76.3879 67.0326 76.5875 66.6314 76.8275C65.8355 77.3165 65.106 77.906 64.461 78.5815L64.1328 78.9296L63.9453 78.4744C63.611 77.7365 63.1585 77.0582 62.6055 76.466C62.0398 75.8473 61.4261 75.2743 60.7702 74.7522C60.1003 74.2166 59.4304 73.7145 58.7606 73.2258C58.0907 72.7371 57.2936 72.255 56.5635 71.7998Z" fill="#48414C"/>
<path d="M25 82.846C25.5249 83.0152 26.0356 83.2256 26.5273 83.4753C27.0237 83.7286 27.4986 84.0219 27.9473 84.3523C28.4096 84.6743 28.8363 85.0446 29.2201 85.4569C29.6206 85.8822 29.9366 86.3798 30.1512 86.923L29.6354 86.8226C29.86 86.5946 30.1018 86.3842 30.3588 86.1933C30.6244 86.016 30.9045 85.8615 31.1961 85.7314C31.7714 85.4466 32.4298 85.3777 33.0516 85.5373C32.457 85.5647 31.8827 85.7622 31.3971 86.1063C31.1501 86.2652 30.915 86.442 30.6937 86.6352C30.4696 86.8182 30.2592 87.0173 30.0641 87.231L29.7493 87.5791L29.5483 87.1239C29.0502 86.2163 28.3653 85.4246 27.5387 84.8008C26.7684 84.118 25.8976 83.482 25 82.846Z" fill="#48414C"/>
<path d="M36.3875 70.8023C37.1833 70.9781 37.944 71.2859 38.6382 71.7128C38.9958 71.9246 39.3284 72.1761 39.6295 72.4626C39.9614 72.7581 40.2263 73.121 40.4066 73.527L39.9042 73.4199C40.2783 73.107 40.7045 72.8622 41.1635 72.6969C41.6142 72.516 42.1138 72.497 42.5769 72.6433C42.1372 72.6924 41.715 72.8437 41.3444 73.0852C41.16 73.1986 40.9833 73.3238 40.8152 73.4601C40.6472 73.5898 40.4862 73.7283 40.3329 73.8751L40.0448 74.1764L39.8305 73.7747C39.4416 73.1502 38.9259 72.6142 38.3166 72.2015C37.7272 71.7195 37.0573 71.2843 36.3875 70.8023Z" fill="#48414C"/>
<path d="M210.254 103.539C211.06 103.847 211.843 104.21 212.599 104.624C213.362 105.033 214.095 105.498 214.789 106.016C215.502 106.526 216.162 107.107 216.759 107.75C217.379 108.399 217.869 109.16 218.206 109.993L217.69 109.892C218.047 109.544 218.432 109.226 218.842 108.942C219.241 108.651 219.667 108.4 220.115 108.192C220.561 107.977 221.034 107.824 221.521 107.737C222.006 107.649 222.503 107.663 222.982 107.777C222.507 107.763 222.034 107.829 221.582 107.971C221.141 108.127 220.717 108.327 220.316 108.567C219.915 108.809 219.532 109.08 219.17 109.377C218.805 109.665 218.463 109.981 218.145 110.321L217.817 110.669L217.629 110.214C217.295 109.476 216.842 108.798 216.29 108.205C215.722 107.588 215.109 107.015 214.454 106.491C213.785 105.956 213.115 105.454 212.445 104.972C211.775 104.49 210.985 103.994 210.254 103.539Z" fill="#48414C"/>
<path d="M178.691 114.585C179.216 114.753 179.727 114.963 180.218 115.215C180.713 115.463 181.188 115.749 181.638 116.072C182.1 116.392 182.524 116.762 182.904 117.176C183.309 117.599 183.628 118.097 183.842 118.642L183.326 118.535C183.562 118.317 183.813 118.116 184.077 117.933C184.34 117.751 184.62 117.597 184.914 117.471C185.489 117.186 186.148 117.117 186.769 117.277C186.17 117.296 185.589 117.487 185.095 117.826C184.862 117.987 184.638 118.161 184.425 118.348C184.204 118.534 183.994 118.733 183.795 118.944L183.48 119.292L183.279 118.843C182.783 117.934 182.098 117.142 181.27 116.52C180.459 115.857 179.582 115.221 178.691 114.585Z" fill="#48414C"/>
<path d="M190.105 102.542C190.901 102.717 191.662 103.025 192.356 103.452C192.714 103.664 193.046 103.915 193.347 104.202C193.673 104.498 193.933 104.858 194.111 105.26L193.609 105.159C193.983 104.846 194.409 104.602 194.868 104.436C195.318 104.256 195.817 104.235 196.281 104.376C195.842 104.431 195.42 104.584 195.049 104.825C194.863 104.936 194.686 105.061 194.52 105.199C194.35 105.327 194.189 105.466 194.037 105.614L193.749 105.916L193.535 105.507C193.142 104.886 192.627 104.35 192.021 103.934C191.411 103.459 190.755 103.024 190.105 102.542Z" fill="#48414C"/>
<path d="M139.772 17.3388C140.429 17.5714 141.067 17.8534 141.682 18.1823C142.301 18.5019 142.894 18.869 143.457 19.2803C144.034 19.6917 144.568 20.1605 145.051 20.6794C145.561 21.2074 145.966 21.8277 146.243 22.5071L145.727 22.4C146.02 22.1216 146.333 21.8665 146.665 21.6368C146.993 21.4073 147.34 21.2078 147.704 21.0409C148.421 20.6758 149.242 20.5717 150.028 20.7464C149.268 20.7568 148.527 20.9895 147.898 21.4158C147.582 21.6193 147.28 21.8429 146.993 22.0853C146.706 22.3161 146.435 22.5666 146.183 22.8351L145.861 23.1832L145.667 22.7347C145.046 21.5659 144.175 20.5487 143.115 19.7556C142.044 18.8916 140.929 18.0848 139.772 17.3388Z" fill="#48414C"/>
<path d="M167.88 22.092C169.115 22.5177 170.316 23.0392 171.47 23.6519C172.64 24.251 173.76 24.9427 174.819 25.7205C175.909 26.4869 176.915 27.3666 177.82 28.3448C178.769 29.3421 179.522 30.5096 180.037 31.7859L179.006 31.5851C179.553 31.0608 180.143 30.5817 180.767 30.1524C181.383 29.7193 182.038 29.345 182.723 29.0344C183.411 28.715 184.139 28.4898 184.887 28.3649C185.627 28.2521 186.382 28.2955 187.104 28.4921C186.39 28.4984 185.682 28.6205 185.008 28.8536C184.35 29.0963 183.719 29.4059 183.125 29.7775C182.528 30.147 181.959 30.561 181.424 31.016C180.888 31.4544 180.382 31.9285 179.91 32.4353L179.24 33.1047L178.845 32.1943C178.34 31.0935 177.661 30.0809 176.835 29.1951C175.986 28.2681 175.071 27.4044 174.096 26.6109C173.613 26.2092 173.104 25.821 172.609 25.4193L171.061 24.2745C170.016 23.5849 168.958 22.8485 167.88 22.092Z" fill="#48414C"/>
<path d="M153.444 5.54956C154.534 5.90069 155.59 6.3488 156.599 6.88849C157.627 7.39906 158.611 7.99473 159.54 8.66927C160.496 9.33666 161.379 10.1042 162.172 10.9588C163.009 11.8354 163.669 12.8651 164.115 13.9915L163.083 13.784C163.567 13.3255 164.086 12.9068 164.637 12.5321C165.173 12.1531 165.743 11.8237 166.339 11.548C166.944 11.2741 167.584 11.0849 168.241 10.9856C168.892 10.8926 169.555 10.9429 170.184 11.1329C169.562 11.1455 168.946 11.2609 168.362 11.4743C167.794 11.692 167.251 11.968 166.741 12.2978C166.233 12.6273 165.75 12.992 165.294 13.389C164.835 13.776 164.398 14.1896 163.988 14.6275L163.318 15.3304L162.989 14.42C162.542 13.4699 161.945 12.5975 161.221 11.8358C160.485 11.0285 159.693 10.2746 158.85 9.57974L157.564 8.53537L156.224 7.52448L153.444 5.54956Z" fill="#48414C"/>
<path d="M254.545 59.9435L257.774 81.0585L283.268 104.865C283.268 104.865 290.543 117.658 264.151 105.179C237.758 92.7005 235.642 91.6695 235.642 91.6695L209.732 86.0861L254.545 59.9435Z" fill="#F0EFED"/>
<path opacity="0.2" d="M210.616 86.2803L235.642 91.6695C235.642 91.6695 272.979 110.415 279.035 110.649L241.362 87.7599L219.445 80.4359L210.616 86.2803Z" fill="url(#paint0_linear)"/>
<path d="M246.962 66.752L255.791 84.3924L283.268 104.871L257.774 81.0585L254.545 59.9435L246.962 66.752Z" fill="#EFB93F"/>
<path d="M100.559 118.776C100.559 118.776 95.8704 110.267 96.279 106.498C96.6876 102.729 264.961 12.4451 264.961 12.4451C264.961 12.4451 301.555 -8.24141 322.776 4.01649C322.776 4.01649 328.945 6.86172 320.633 16.9305C320.633 16.9305 313.264 27.2001 219.076 83.6159C219.076 83.636 148.367 121.441 100.559 118.776Z" fill="#EFB93F"/>
<path opacity="0.16" d="M100.573 118.783C100.573 118.783 99.5948 116.989 98.5632 114.692C98.5632 114.692 194.526 95.3114 322.776 4.04327C322.776 4.04327 328.952 6.8818 320.639 16.9506C320.639 16.9506 313.271 27.2202 219.083 83.636C219.096 83.636 148.387 121.441 100.573 118.783Z" fill="#CCCCCC"/>
<path opacity="0.1" d="M100.573 118.783C144.622 96.2286 159.52 92.8946 203.576 70.3403C252.596 41.8011 250.546 14.1053 285.928 3.63486C301.455 -0.950977 313.117 -1.60705 322.769 4.04323C322.769 4.04323 328.945 6.88176 320.633 16.9505C320.633 16.9505 313.264 27.2201 219.076 83.6359C219.096 83.6359 148.387 121.441 100.573 118.783Z" fill="#38303B"/>
<path d="M267.661 18.2024C267.536 18.2007 267.414 18.1743 267.3 18.1247C267.186 18.0751 267.083 18.0034 266.997 17.9137C266.911 17.824 266.843 17.7181 266.799 17.6022C266.754 17.4862 266.733 17.3626 266.736 17.2384V16.4149C266.743 16.164 266.849 15.926 267.031 15.7529C267.213 15.5798 267.456 15.4857 267.707 15.4911C267.959 15.4981 268.197 15.6041 268.37 15.786C268.543 15.9678 268.637 16.2108 268.632 16.4618V17.2785C268.625 17.5295 268.519 17.7675 268.337 17.9406C268.155 18.1137 267.912 18.2078 267.661 18.2024Z" fill="#38303B"/>
<path d="M264.137 20.1439C264.013 20.1413 263.891 20.1143 263.777 20.0644C263.664 20.0145 263.561 19.9428 263.475 19.8533C263.389 19.7637 263.322 19.6582 263.277 19.5426C263.232 19.4271 263.21 19.3038 263.213 19.1798V18.3564C263.212 18.2278 263.237 18.1004 263.287 17.9819C263.337 17.8635 263.411 17.7564 263.503 17.6674C263.596 17.5784 263.706 17.5093 263.827 17.4643C263.947 17.4193 264.076 17.3994 264.204 17.4058C264.455 17.4128 264.694 17.5188 264.867 17.7007C265.04 17.8825 265.134 18.1255 265.129 18.3765V19.1932C265.131 19.3221 265.106 19.45 265.057 19.5689C265.007 19.6878 264.933 19.7953 264.84 19.8845C264.747 19.9737 264.637 20.0428 264.516 20.0874C264.395 20.132 264.266 20.1513 264.137 20.1439Z" fill="#38303B"/>
<path d="M264.137 20.1439C264.013 20.1413 263.891 20.1143 263.777 20.0644C263.664 20.0145 263.561 19.9428 263.475 19.8533C263.389 19.7637 263.322 19.6582 263.277 19.5426C263.232 19.4271 263.21 19.3038 263.213 19.1798V18.3564C263.212 18.2278 263.237 18.1004 263.287 17.9819C263.337 17.8635 263.411 17.7564 263.503 17.6674C263.596 17.5784 263.706 17.5093 263.827 17.4643C263.947 17.4193 264.076 17.3994 264.204 17.4058C264.455 17.4128 264.694 17.5188 264.867 17.7007C265.04 17.8825 265.134 18.1255 265.129 18.3765V19.1932C265.131 19.3221 265.106 19.45 265.057 19.5689C265.007 19.6878 264.933 19.7953 264.84 19.8845C264.747 19.9737 264.637 20.0428 264.516 20.0874C264.395 20.132 264.266 20.1513 264.137 20.1439Z" fill="#38303B"/>
<path d="M260.627 22.092C260.376 22.0868 260.137 21.9824 259.963 21.8018C259.788 21.6212 259.693 21.379 259.696 21.128V20.3046C259.703 20.0536 259.809 19.8156 259.991 19.6425C260.173 19.4694 260.416 19.3753 260.667 19.3807C260.919 19.3877 261.157 19.4937 261.33 19.6756C261.503 19.8575 261.597 20.1004 261.592 20.3514V21.1682C261.589 21.2922 261.562 21.4144 261.512 21.5279C261.462 21.6414 261.391 21.744 261.301 21.8298C261.211 21.9156 261.106 21.9829 260.99 22.0279C260.875 22.0729 260.751 22.0947 260.627 22.092Z" fill="#38303B"/>
<path d="M260.627 22.092C260.376 22.0868 260.137 21.9824 259.963 21.8018C259.788 21.6212 259.693 21.379 259.696 21.128V20.3046C259.703 20.0536 259.809 19.8156 259.991 19.6425C260.173 19.4694 260.416 19.3753 260.667 19.3807C260.919 19.3877 261.157 19.4937 261.33 19.6756C261.503 19.8575 261.597 20.1004 261.592 20.3514V21.1682C261.589 21.2922 261.562 21.4144 261.512 21.5279C261.462 21.6414 261.391 21.744 261.301 21.8298C261.211 21.9156 261.106 21.9829 260.99 22.0279C260.875 22.0729 260.751 22.0947 260.627 22.092Z" fill="#38303B"/>
<path d="M257.104 24.0268C256.98 24.0242 256.857 23.9972 256.744 23.9473C256.63 23.8975 256.528 23.8257 256.442 23.7362C256.356 23.6467 256.289 23.5411 256.244 23.4256C256.199 23.31 256.177 23.1867 256.179 23.0628V22.2393C256.186 21.9884 256.293 21.7504 256.474 21.5773C256.656 21.4042 256.9 21.3101 257.151 21.3155C257.278 21.3145 257.404 21.3391 257.521 21.3877C257.639 21.4364 257.746 21.5081 257.835 21.5986C257.924 21.6891 257.994 21.7966 258.041 21.9147C258.088 22.0328 258.111 22.1591 258.109 22.2862V23.1029C258.105 23.2301 258.076 23.3554 258.024 23.4712C257.971 23.5871 257.895 23.6911 257.802 23.7773C257.708 23.8635 257.598 23.9299 257.478 23.9728C257.358 24.0156 257.231 24.034 257.104 24.0268Z" fill="#38303B"/>
<path d="M257.104 24.0268C256.98 24.0242 256.857 23.9972 256.744 23.9473C256.63 23.8975 256.528 23.8257 256.442 23.7362C256.356 23.6467 256.289 23.5411 256.244 23.4256C256.199 23.31 256.177 23.1867 256.179 23.0628V22.2393C256.186 21.9884 256.293 21.7504 256.474 21.5773C256.656 21.4042 256.9 21.3101 257.151 21.3155C257.278 21.3145 257.404 21.3391 257.521 21.3877C257.639 21.4364 257.746 21.5081 257.835 21.5986C257.924 21.6891 257.994 21.7966 258.041 21.9147C258.088 22.0328 258.111 22.1591 258.109 22.2862V23.1029C258.105 23.2301 258.076 23.3554 258.024 23.4712C257.971 23.5871 257.895 23.6911 257.802 23.7773C257.708 23.8635 257.598 23.9299 257.478 23.9728C257.358 24.0156 257.231 24.034 257.104 24.0268Z" fill="#38303B"/>
<path d="M253.587 25.9683C253.463 25.9657 253.341 25.9386 253.227 25.8888C253.114 25.8389 253.011 25.7672 252.925 25.6777C252.839 25.5881 252.772 25.4826 252.727 25.367C252.682 25.2515 252.66 25.1282 252.663 25.0042V24.1808C252.665 24.0568 252.692 23.9346 252.742 23.8211C252.792 23.7075 252.864 23.6049 252.953 23.5191C253.043 23.4333 253.149 23.366 253.264 23.321C253.38 23.276 253.503 23.2543 253.627 23.2569C253.878 23.2639 254.117 23.37 254.29 23.5518C254.463 23.7337 254.557 23.9766 254.552 24.2277V25.0444C254.55 25.1686 254.524 25.2913 254.474 25.4052C254.424 25.5192 254.353 25.6221 254.263 25.7081C254.173 25.7941 254.067 25.8613 253.951 25.906C253.835 25.9507 253.711 25.9718 253.587 25.9683Z" fill="#38303B"/>
<path d="M253.587 25.9683C253.463 25.9657 253.341 25.9386 253.227 25.8888C253.114 25.8389 253.011 25.7672 252.925 25.6777C252.839 25.5881 252.772 25.4826 252.727 25.367C252.682 25.2515 252.66 25.1282 252.663 25.0042V24.1808C252.665 24.0568 252.692 23.9346 252.742 23.8211C252.792 23.7075 252.864 23.6049 252.953 23.5191C253.043 23.4333 253.149 23.366 253.264 23.321C253.38 23.276 253.503 23.2543 253.627 23.2569C253.878 23.2639 254.117 23.37 254.29 23.5518C254.463 23.7337 254.557 23.9766 254.552 24.2277V25.0444C254.55 25.1686 254.524 25.2913 254.474 25.4052C254.424 25.5192 254.353 25.6221 254.263 25.7081C254.173 25.7941 254.067 25.8613 253.951 25.906C253.835 25.9507 253.711 25.9718 253.587 25.9683Z" fill="#38303B"/>
<path d="M250.07 27.9097C249.946 27.9071 249.823 27.8798 249.709 27.8296C249.595 27.7793 249.492 27.7069 249.406 27.6167C249.32 27.5265 249.253 27.4201 249.208 27.3038C249.163 27.1875 249.142 27.0635 249.146 26.9389V26.1222C249.153 25.8712 249.259 25.6332 249.441 25.4601C249.623 25.2871 249.866 25.1929 250.117 25.1983C250.368 25.2054 250.606 25.3114 250.78 25.4932C250.953 25.6751 251.047 25.9181 251.042 26.1691V26.9858C251.039 27.1104 251.012 27.2332 250.961 27.3471C250.911 27.4611 250.839 27.564 250.748 27.6499C250.658 27.7358 250.552 27.8029 250.435 27.8475C250.319 27.8921 250.195 27.9132 250.07 27.9097Z" fill="#38303B"/>
<path d="M250.07 27.9097C249.946 27.9071 249.823 27.8798 249.709 27.8296C249.595 27.7793 249.492 27.7069 249.406 27.6167C249.32 27.5265 249.253 27.4201 249.208 27.3038C249.163 27.1875 249.142 27.0635 249.146 26.9389V26.1222C249.153 25.8712 249.259 25.6332 249.441 25.4601C249.623 25.2871 249.866 25.1929 250.117 25.1983C250.368 25.2054 250.606 25.3114 250.78 25.4932C250.953 25.6751 251.047 25.9181 251.042 26.1691V26.9858C251.039 27.1104 251.012 27.2332 250.961 27.3471C250.911 27.4611 250.839 27.564 250.748 27.6499C250.658 27.7358 250.552 27.8029 250.435 27.8475C250.319 27.8921 250.195 27.9132 250.07 27.9097Z" fill="#38303B"/>
<path d="M246.547 29.8511C246.296 29.8441 246.058 29.7381 245.884 29.5562C245.711 29.3744 245.617 29.1314 245.623 28.8804V28.0637C245.63 27.8127 245.736 27.5747 245.918 27.4016C246.1 27.2285 246.343 27.1344 246.594 27.1398C246.72 27.1406 246.846 27.1668 246.962 27.2166C247.078 27.2664 247.184 27.339 247.272 27.43C247.36 27.5211 247.429 27.6288 247.474 27.7468C247.52 27.8648 247.542 27.9907 247.538 28.1172V28.934C247.534 29.0594 247.505 29.1828 247.453 29.2969C247.4 29.4111 247.326 29.5137 247.234 29.599C247.142 29.6843 247.034 29.7505 246.916 29.7937C246.798 29.837 246.672 29.8565 246.547 29.8511Z" fill="#38303B"/>
<path d="M246.547 29.8511C246.296 29.8441 246.058 29.7381 245.884 29.5562C245.711 29.3744 245.617 29.1314 245.623 28.8804V28.0637C245.63 27.8127 245.736 27.5747 245.918 27.4016C246.1 27.2285 246.343 27.1344 246.594 27.1398C246.72 27.1406 246.846 27.1668 246.962 27.2166C247.078 27.2664 247.184 27.339 247.272 27.43C247.36 27.5211 247.429 27.6288 247.474 27.7468C247.52 27.8648 247.542 27.9907 247.538 28.1172V28.934C247.534 29.0594 247.505 29.1828 247.453 29.2969C247.4 29.4111 247.326 29.5137 247.234 29.599C247.142 29.6843 247.034 29.7505 246.916 29.7937C246.798 29.837 246.672 29.8565 246.547 29.8511Z" fill="#38303B"/>
<path d="M243.03 31.7925C242.903 31.7891 242.779 31.7605 242.663 31.7082C242.548 31.6559 242.444 31.5811 242.358 31.4882C242.272 31.3953 242.205 31.2861 242.162 31.1671C242.119 31.048 242.099 30.9215 242.106 30.795V29.9783C242.108 29.8543 242.135 29.7321 242.185 29.6186C242.235 29.505 242.307 29.4024 242.397 29.3166C242.486 29.2309 242.592 29.1635 242.707 29.1185C242.823 29.0736 242.946 29.0518 243.07 29.0544C243.201 29.0515 243.331 29.0755 243.452 29.125C243.573 29.1744 243.682 29.2482 243.773 29.3418C243.864 29.4354 243.935 29.5468 243.981 29.669C244.028 29.7911 244.048 29.9215 244.042 30.0519V30.8687C244.038 30.9965 244.009 31.1223 243.956 31.2386C243.903 31.3549 243.827 31.4593 243.732 31.5456C243.638 31.6318 243.527 31.6981 243.407 31.7406C243.286 31.783 243.158 31.8007 243.03 31.7925Z" fill="#38303B"/>
<path d="M243.03 31.7925C242.903 31.7891 242.779 31.7605 242.663 31.7082C242.548 31.6559 242.444 31.5811 242.358 31.4882C242.272 31.3953 242.205 31.2861 242.162 31.1671C242.119 31.048 242.099 30.9215 242.106 30.795V29.9783C242.108 29.8543 242.135 29.7321 242.185 29.6186C242.235 29.505 242.307 29.4024 242.397 29.3166C242.486 29.2309 242.592 29.1635 242.707 29.1185C242.823 29.0736 242.946 29.0518 243.07 29.0544C243.201 29.0515 243.331 29.0755 243.452 29.125C243.573 29.1744 243.682 29.2482 243.773 29.3418C243.864 29.4354 243.935 29.5468 243.981 29.669C244.028 29.7911 244.048 29.9215 244.042 30.0519V30.8687C244.038 30.9965 244.009 31.1223 243.956 31.2386C243.903 31.3549 243.827 31.4593 243.732 31.5456C243.638 31.6318 243.527 31.6981 243.407 31.7406C243.286 31.783 243.158 31.8007 243.03 31.7925Z" fill="#38303B"/>
<path d="M239.513 33.734C239.262 33.727 239.024 33.621 238.851 33.4391C238.678 33.2573 238.584 33.0143 238.589 32.7633V31.9465C238.596 31.6956 238.702 31.4576 238.884 31.2845C239.066 31.1114 239.309 31.0173 239.56 31.0227C239.811 31.0297 240.05 31.1357 240.223 31.3176C240.396 31.4994 240.49 31.7424 240.485 31.9934V32.8102C240.482 32.9347 240.455 33.0575 240.405 33.1715C240.354 33.2854 240.282 33.3883 240.192 33.4742C240.101 33.5601 239.995 33.6273 239.879 33.6719C239.762 33.7165 239.638 33.7376 239.513 33.734Z" fill="#38303B"/>
<path d="M239.513 33.734C239.262 33.727 239.024 33.621 238.851 33.4391C238.678 33.2573 238.584 33.0143 238.589 32.7633V31.9465C238.596 31.6956 238.702 31.4576 238.884 31.2845C239.066 31.1114 239.309 31.0173 239.56 31.0227C239.811 31.0297 240.05 31.1357 240.223 31.3176C240.396 31.4994 240.49 31.7424 240.485 31.9934V32.8102C240.482 32.9347 240.455 33.0575 240.405 33.1715C240.354 33.2854 240.282 33.3883 240.192 33.4742C240.101 33.5601 239.995 33.6273 239.879 33.6719C239.762 33.7165 239.638 33.7376 239.513 33.734Z" fill="#38303B"/>
<path d="M236.003 35.6755C235.752 35.6685 235.514 35.5625 235.341 35.3806C235.168 35.1987 235.074 34.9558 235.079 34.7048V33.888C235.086 33.637 235.192 33.399 235.374 33.2259C235.556 33.0529 235.799 32.9587 236.05 32.9641C236.301 32.9712 236.54 33.0772 236.713 33.259C236.886 33.4409 236.98 33.6839 236.975 33.9349V34.7516C236.968 35.0026 236.862 35.2406 236.68 35.4137C236.498 35.5868 236.255 35.6809 236.003 35.6755Z" fill="#38303B"/>
<path d="M236.003 35.6755C235.752 35.6685 235.514 35.5625 235.341 35.3806C235.168 35.1987 235.074 34.9558 235.079 34.7048V33.888C235.086 33.637 235.192 33.399 235.374 33.2259C235.556 33.0529 235.799 32.9587 236.05 32.9641C236.301 32.9712 236.54 33.0772 236.713 33.259C236.886 33.4409 236.98 33.6839 236.975 33.9349V34.7516C236.968 35.0026 236.862 35.2406 236.68 35.4137C236.498 35.5868 236.255 35.6809 236.003 35.6755Z" fill="#38303B"/>
<path d="M232.473 37.6169C232.222 37.6099 231.984 37.5039 231.811 37.3221C231.638 37.1402 231.544 36.8972 231.549 36.6462V35.8295C231.552 35.7055 231.579 35.5833 231.628 35.4697C231.678 35.3562 231.75 35.2536 231.84 35.1678C231.929 35.082 232.035 35.0147 232.15 34.9697C232.266 34.9247 232.389 34.9029 232.514 34.9056C232.638 34.9082 232.761 34.9354 232.875 34.9857C232.989 35.036 233.092 35.1084 233.178 35.1986C233.264 35.2888 233.331 35.3952 233.376 35.5115C233.42 35.6278 233.441 35.7518 233.438 35.8763V36.6931C233.431 36.9429 233.326 37.1799 233.145 37.3528C232.965 37.5257 232.723 37.6206 232.473 37.6169Z" fill="#38303B"/>
<path d="M232.473 37.6169C232.222 37.6099 231.984 37.5039 231.811 37.3221C231.638 37.1402 231.544 36.8972 231.549 36.6462V35.8295C231.552 35.7055 231.579 35.5833 231.628 35.4697C231.678 35.3562 231.75 35.2536 231.84 35.1678C231.929 35.082 232.035 35.0147 232.15 34.9697C232.266 34.9247 232.389 34.9029 232.514 34.9056C232.638 34.9082 232.761 34.9354 232.875 34.9857C232.989 35.036 233.092 35.1084 233.178 35.1986C233.264 35.2888 233.331 35.3952 233.376 35.5115C233.42 35.6278 233.441 35.7518 233.438 35.8763V36.6931C233.431 36.9429 233.326 37.1799 233.145 37.3528C232.965 37.5257 232.723 37.6206 232.473 37.6169Z" fill="#38303B"/>
<path d="M228.957 39.5584C228.705 39.5514 228.467 39.4454 228.294 39.2635C228.121 39.0816 228.027 38.8387 228.032 38.5877V37.7709C228.03 37.6427 228.055 37.5154 228.104 37.3969C228.153 37.2785 228.226 37.1714 228.318 37.0822C228.411 36.9931 228.52 36.9239 228.64 36.8788C228.761 36.8338 228.889 36.8138 229.017 36.8203C229.147 36.8182 229.276 36.8429 229.395 36.8929C229.515 36.9428 229.623 37.0169 229.713 37.1105C229.803 37.2041 229.873 37.3152 229.918 37.4369C229.963 37.5586 229.982 37.6882 229.975 37.8178V38.6345C229.973 38.7635 229.945 38.8909 229.893 39.0086C229.84 39.1263 229.763 39.2318 229.667 39.3185C229.572 39.4052 229.459 39.4713 229.337 39.5126C229.215 39.5539 229.085 39.5694 228.957 39.5584Z" fill="#38303B"/>
<path d="M228.957 39.5584C228.705 39.5514 228.467 39.4454 228.294 39.2635C228.121 39.0816 228.027 38.8387 228.032 38.5877V37.7709C228.03 37.6427 228.055 37.5154 228.104 37.3969C228.153 37.2785 228.226 37.1714 228.318 37.0822C228.411 36.9931 228.52 36.9239 228.64 36.8788C228.761 36.8338 228.889 36.8138 229.017 36.8203C229.147 36.8182 229.276 36.8429 229.395 36.8929C229.515 36.9428 229.623 37.0169 229.713 37.1105C229.803 37.2041 229.873 37.3152 229.918 37.4369C229.963 37.5586 229.982 37.6882 229.975 37.8178V38.6345C229.973 38.7635 229.945 38.8909 229.893 39.0086C229.84 39.1263 229.763 39.2318 229.667 39.3185C229.572 39.4052 229.459 39.4713 229.337 39.5126C229.215 39.5539 229.085 39.5694 228.957 39.5584Z" fill="#38303B"/>
<path d="M225.433 41.5065C225.182 41.4995 224.944 41.3934 224.771 41.2116C224.598 41.0297 224.503 40.7868 224.509 40.5357V39.719C224.516 39.468 224.622 39.23 224.804 39.0569C224.986 38.8839 225.229 38.7897 225.48 38.7951C225.604 38.7978 225.726 38.8248 225.84 38.8746C225.954 38.9245 226.056 38.9962 226.142 39.0858C226.228 39.1753 226.295 39.2808 226.34 39.3964C226.385 39.5119 226.407 39.6352 226.404 39.7592V40.5826C226.397 40.8336 226.291 41.0716 226.109 41.2447C225.927 41.4178 225.684 41.5119 225.433 41.5065Z" fill="#38303B"/>
<path d="M225.433 41.5065C225.182 41.4995 224.944 41.3934 224.771 41.2116C224.598 41.0297 224.503 40.7868 224.509 40.5357V39.719C224.516 39.468 224.622 39.23 224.804 39.0569C224.986 38.8839 225.229 38.7897 225.48 38.7951C225.604 38.7978 225.726 38.8248 225.84 38.8746C225.954 38.9245 226.056 38.9962 226.142 39.0858C226.228 39.1753 226.295 39.2808 226.34 39.3964C226.385 39.5119 226.407 39.6352 226.404 39.7592V40.5826C226.397 40.8336 226.291 41.0716 226.109 41.2447C225.927 41.4178 225.684 41.5119 225.433 41.5065Z" fill="#38303B"/>
<path d="M221.937 43.4413C221.685 43.4343 221.447 43.3282 221.274 43.1464C221.101 42.9645 221.007 42.7216 221.012 42.4705V41.6538C221.015 41.5293 221.042 41.4065 221.092 41.2925C221.143 41.1785 221.215 41.0756 221.305 40.9897C221.396 40.9038 221.502 40.8367 221.618 40.7921C221.735 40.7475 221.859 40.7264 221.983 40.7299C222.233 40.737 222.471 40.842 222.644 41.0225C222.817 41.2029 222.911 41.4441 222.908 41.694V42.5174C222.901 42.7684 222.795 43.0064 222.613 43.1795C222.431 43.3526 222.188 43.4467 221.937 43.4413Z" fill="#38303B"/>
<path d="M221.937 43.4413C221.685 43.4343 221.447 43.3282 221.274 43.1464C221.101 42.9645 221.007 42.7216 221.012 42.4705V41.6538C221.015 41.5293 221.042 41.4065 221.092 41.2925C221.143 41.1785 221.215 41.0756 221.305 40.9897C221.396 40.9038 221.502 40.8367 221.618 40.7921C221.735 40.7475 221.859 40.7264 221.983 40.7299C222.233 40.737 222.471 40.842 222.644 41.0225C222.817 41.2029 222.911 41.4441 222.908 41.694V42.5174C222.901 42.7684 222.795 43.0064 222.613 43.1795C222.431 43.3526 222.188 43.4467 221.937 43.4413Z" fill="#38303B"/>
<path d="M218.4 45.3827C218.149 45.3757 217.91 45.2697 217.737 45.0878C217.564 44.906 217.47 44.663 217.475 44.412V43.5953C217.477 43.471 217.503 43.3484 217.553 43.2344C217.603 43.1205 217.674 43.0176 217.764 42.9316C217.854 42.8456 217.96 42.7783 218.076 42.7337C218.192 42.689 218.316 42.6678 218.44 42.6714C218.564 42.674 218.686 42.701 218.8 42.7509C218.913 42.8008 219.016 42.8725 219.102 42.962C219.188 43.0515 219.255 43.1571 219.3 43.2726C219.345 43.3882 219.367 43.5115 219.364 43.6354V44.4589C219.362 44.5828 219.335 44.7051 219.285 44.8186C219.235 44.9321 219.163 45.0347 219.074 45.1205C218.984 45.2063 218.878 45.2736 218.763 45.3186C218.647 45.3636 218.524 45.3854 218.4 45.3827Z" fill="#38303B"/>
<path d="M218.4 45.3827C218.149 45.3757 217.91 45.2697 217.737 45.0878C217.564 44.906 217.47 44.663 217.475 44.412V43.5953C217.477 43.471 217.503 43.3484 217.553 43.2344C217.603 43.1205 217.674 43.0176 217.764 42.9316C217.854 42.8456 217.96 42.7783 218.076 42.7337C218.192 42.689 218.316 42.6678 218.44 42.6714C218.564 42.674 218.686 42.701 218.8 42.7509C218.913 42.8008 219.016 42.8725 219.102 42.962C219.188 43.0515 219.255 43.1571 219.3 43.2726C219.345 43.3882 219.367 43.5115 219.364 43.6354V44.4589C219.362 44.5828 219.335 44.7051 219.285 44.8186C219.235 44.9321 219.163 45.0347 219.074 45.1205C218.984 45.2063 218.878 45.2736 218.763 45.3186C218.647 45.3636 218.524 45.3854 218.4 45.3827Z" fill="#38303B"/>
<path d="M214.876 47.3242C214.625 47.3171 214.387 47.2111 214.214 47.0293C214.041 46.8474 213.946 46.6044 213.952 46.3534V45.5367C213.959 45.2857 214.065 45.0477 214.247 44.8746C214.429 44.7015 214.672 44.6074 214.923 44.6128C215.047 44.6154 215.17 44.6425 215.283 44.6923C215.397 44.7422 215.499 44.8139 215.585 44.9034C215.671 44.993 215.738 45.0985 215.783 45.2141C215.828 45.3296 215.85 45.4529 215.848 45.5769V46.4003C215.841 46.6513 215.734 46.8893 215.553 47.0624C215.371 47.2354 215.127 47.3296 214.876 47.3242Z" fill="#38303B"/>
<path d="M214.876 47.3242C214.625 47.3171 214.387 47.2111 214.214 47.0293C214.041 46.8474 213.946 46.6044 213.952 46.3534V45.5367C213.959 45.2857 214.065 45.0477 214.247 44.8746C214.429 44.7015 214.672 44.6074 214.923 44.6128C215.047 44.6154 215.17 44.6425 215.283 44.6923C215.397 44.7422 215.499 44.8139 215.585 44.9034C215.671 44.993 215.738 45.0985 215.783 45.2141C215.828 45.3296 215.85 45.4529 215.848 45.5769V46.4003C215.841 46.6513 215.734 46.8893 215.553 47.0624C215.371 47.2354 215.127 47.3296 214.876 47.3242Z" fill="#38303B"/>
<path d="M211.36 49.2656C211.108 49.2586 210.87 49.1526 210.697 48.9707C210.524 48.7889 210.43 48.5459 210.435 48.2949V47.4782C210.442 47.2272 210.548 46.9892 210.73 46.8161C210.912 46.643 211.155 46.5489 211.406 46.5543C211.533 46.5542 211.659 46.5797 211.776 46.6292C211.893 46.6787 211.998 46.7513 212.086 46.8425C212.175 46.9337 212.243 47.0418 212.289 47.1602C212.334 47.2786 212.355 47.405 212.351 47.5317V48.3485C212.34 48.6012 212.23 48.8396 212.045 49.0115C211.859 49.1833 211.613 49.2747 211.36 49.2656Z" fill="#38303B"/>
<path d="M211.36 49.2656C211.108 49.2586 210.87 49.1526 210.697 48.9707C210.524 48.7889 210.43 48.5459 210.435 48.2949V47.4782C210.442 47.2272 210.548 46.9892 210.73 46.8161C210.912 46.643 211.155 46.5489 211.406 46.5543C211.533 46.5542 211.659 46.5797 211.776 46.6292C211.893 46.6787 211.998 46.7513 212.086 46.8425C212.175 46.9337 212.243 47.0418 212.289 47.1602C212.334 47.2786 212.355 47.405 212.351 47.5317V48.3485C212.34 48.6012 212.23 48.8396 212.045 49.0115C211.859 49.1833 211.613 49.2747 211.36 49.2656Z" fill="#38303B"/>
<path d="M207.87 51.2004C207.741 51.2024 207.613 51.1779 207.494 51.1283C207.375 51.0787 207.267 51.0051 207.178 50.9121C207.089 50.8191 207.02 50.7088 206.975 50.5879C206.93 50.467 206.911 50.3382 206.919 50.2096V49.3928C206.92 49.2686 206.947 49.1459 206.996 49.032C207.046 48.918 207.118 48.8151 207.207 48.7291C207.297 48.6432 207.403 48.5759 207.519 48.5312C207.635 48.4866 207.759 48.4654 207.883 48.469C208.007 48.4707 208.13 48.4971 208.244 48.5466C208.358 48.5962 208.461 48.6679 208.547 48.7576C208.633 48.8473 208.701 48.9532 208.745 49.0692C208.79 49.1851 208.811 49.3088 208.808 49.433V50.2497C208.809 50.3739 208.786 50.4972 208.74 50.6125C208.694 50.7278 208.625 50.8327 208.538 50.9211C208.45 51.0096 208.346 51.0798 208.232 51.1278C208.117 51.1757 207.994 51.2004 207.87 51.2004Z" fill="#38303B"/>
<path d="M207.87 51.2004C207.741 51.2024 207.613 51.1779 207.494 51.1283C207.375 51.0787 207.267 51.0051 207.178 50.9121C207.089 50.8191 207.02 50.7088 206.975 50.5879C206.93 50.467 206.911 50.3382 206.919 50.2096V49.3928C206.92 49.2686 206.947 49.1459 206.996 49.032C207.046 48.918 207.118 48.8151 207.207 48.7291C207.297 48.6432 207.403 48.5759 207.519 48.5312C207.635 48.4866 207.759 48.4654 207.883 48.469C208.007 48.4707 208.13 48.4971 208.244 48.5466C208.358 48.5962 208.461 48.6679 208.547 48.7576C208.633 48.8473 208.701 48.9532 208.745 49.0692C208.79 49.1851 208.811 49.3088 208.808 49.433V50.2497C208.809 50.3739 208.786 50.4972 208.74 50.6125C208.694 50.7278 208.625 50.8327 208.538 50.9211C208.45 51.0096 208.346 51.0798 208.232 51.1278C208.117 51.1757 207.994 51.2004 207.87 51.2004Z" fill="#38303B"/>
<path d="M204.326 53.1418C204.202 53.1401 204.079 53.1137 203.965 53.0641C203.851 53.0146 203.748 52.9428 203.662 52.8531C203.576 52.7634 203.509 52.6575 203.464 52.5416C203.419 52.4256 203.398 52.302 203.402 52.1778V51.361C203.409 51.1101 203.515 50.8721 203.697 50.699C203.879 50.5259 204.122 50.4318 204.373 50.4372C204.497 50.4389 204.62 50.4653 204.734 50.5149C204.848 50.5644 204.951 50.6361 205.037 50.7258C205.123 50.8155 205.19 50.9215 205.235 51.0374C205.28 51.1533 205.301 51.277 205.297 51.4012V52.2179C205.295 52.3425 205.268 52.4653 205.217 52.5793C205.167 52.6932 205.095 52.7961 205.004 52.882C204.914 52.9679 204.808 53.0351 204.691 53.0797C204.575 53.1242 204.451 53.1454 204.326 53.1418Z" fill="#38303B"/>
<path d="M204.326 53.1418C204.202 53.1401 204.079 53.1137 203.965 53.0641C203.851 53.0146 203.748 52.9428 203.662 52.8531C203.576 52.7634 203.509 52.6575 203.464 52.5416C203.419 52.4256 203.398 52.302 203.402 52.1778V51.361C203.409 51.1101 203.515 50.8721 203.697 50.699C203.879 50.5259 204.122 50.4318 204.373 50.4372C204.497 50.4389 204.62 50.4653 204.734 50.5149C204.848 50.5644 204.951 50.6361 205.037 50.7258C205.123 50.8155 205.19 50.9215 205.235 51.0374C205.28 51.1533 205.301 51.277 205.297 51.4012V52.2179C205.295 52.3425 205.268 52.4653 205.217 52.5793C205.167 52.6932 205.095 52.7961 205.004 52.882C204.914 52.9679 204.808 53.0351 204.691 53.0797C204.575 53.1242 204.451 53.1454 204.326 53.1418Z" fill="#38303B"/>
<path d="M200.803 55.0833C200.678 55.0815 200.556 55.0551 200.442 55.0056C200.328 54.956 200.225 54.8843 200.139 54.7946C200.053 54.7049 199.985 54.599 199.941 54.4831C199.896 54.3671 199.875 54.2434 199.878 54.1192V53.3025C199.885 53.0515 199.991 52.8135 200.173 52.6404C200.355 52.4674 200.598 52.3732 200.85 52.3786C200.974 52.3804 201.097 52.4068 201.211 52.4563C201.325 52.5059 201.428 52.5776 201.514 52.6673C201.6 52.757 201.667 52.8629 201.712 52.9789C201.756 53.0948 201.778 53.2185 201.774 53.3427V54.1594C201.767 54.4104 201.661 54.6484 201.479 54.8215C201.297 54.9946 201.054 55.0887 200.803 55.0833Z" fill="#38303B"/>
<path d="M200.803 55.0833C200.678 55.0815 200.556 55.0551 200.442 55.0056C200.328 54.956 200.225 54.8843 200.139 54.7946C200.053 54.7049 199.985 54.599 199.941 54.4831C199.896 54.3671 199.875 54.2434 199.878 54.1192V53.3025C199.885 53.0515 199.991 52.8135 200.173 52.6404C200.355 52.4674 200.598 52.3732 200.85 52.3786C200.974 52.3804 201.097 52.4068 201.211 52.4563C201.325 52.5059 201.428 52.5776 201.514 52.6673C201.6 52.757 201.667 52.8629 201.712 52.9789C201.756 53.0948 201.778 53.2185 201.774 53.3427V54.1594C201.767 54.4104 201.661 54.6484 201.479 54.8215C201.297 54.9946 201.054 55.0887 200.803 55.0833Z" fill="#38303B"/>
<path d="M197.286 57.0247C197.162 57.023 197.039 56.9966 196.925 56.947C196.811 56.8975 196.708 56.8258 196.622 56.7361C196.536 56.6463 196.469 56.5404 196.424 56.4245C196.379 56.3086 196.358 56.1849 196.362 56.0607V55.2439C196.367 54.993 196.471 54.7543 196.652 54.58C196.833 54.4056 197.075 54.3098 197.326 54.3134C197.577 54.3204 197.815 54.4264 197.989 54.6083C198.162 54.7902 198.256 55.0331 198.251 55.2841V56.1009C198.244 56.3507 198.138 56.5876 197.958 56.7605C197.777 56.9334 197.536 57.0283 197.286 57.0247Z" fill="#38303B"/>
<path d="M197.286 57.0247C197.162 57.023 197.039 56.9966 196.925 56.947C196.811 56.8975 196.708 56.8258 196.622 56.7361C196.536 56.6463 196.469 56.5404 196.424 56.4245C196.379 56.3086 196.358 56.1849 196.362 56.0607V55.2439C196.367 54.993 196.471 54.7543 196.652 54.58C196.833 54.4056 197.075 54.3098 197.326 54.3134C197.577 54.3204 197.815 54.4264 197.989 54.6083C198.162 54.7902 198.256 55.0331 198.251 55.2841V56.1009C198.244 56.3507 198.138 56.5876 197.958 56.7605C197.777 56.9334 197.536 57.0283 197.286 57.0247Z" fill="#38303B"/>
<path d="M193.803 58.9662C193.679 58.9636 193.556 58.9365 193.443 58.8867C193.329 58.8368 193.227 58.7651 193.141 58.6755C193.055 58.586 192.988 58.4805 192.943 58.3649C192.898 58.2494 192.876 58.1261 192.878 58.0021V57.1787C192.88 56.9323 192.977 56.6962 193.15 56.5201C193.322 56.344 193.556 56.2417 193.803 56.2347C194.054 56.2418 194.292 56.3478 194.465 56.5296C194.638 56.7115 194.733 56.9545 194.727 57.2055V58.0222C194.727 58.2691 194.63 58.5062 194.458 58.6827C194.285 58.8591 194.05 58.9609 193.803 58.9662Z" fill="#38303B"/>
<path d="M193.803 58.9662C193.679 58.9636 193.556 58.9365 193.443 58.8867C193.329 58.8368 193.227 58.7651 193.141 58.6755C193.055 58.586 192.988 58.4805 192.943 58.3649C192.898 58.2494 192.876 58.1261 192.878 58.0021V57.1787C192.88 56.9323 192.977 56.6962 193.15 56.5201C193.322 56.344 193.556 56.2417 193.803 56.2347C194.054 56.2418 194.292 56.3478 194.465 56.5296C194.638 56.7115 194.733 56.9545 194.727 57.2055V58.0222C194.727 58.2691 194.63 58.5062 194.458 58.6827C194.285 58.8591 194.05 58.9609 193.803 58.9662Z" fill="#38303B"/>
<path d="M190.246 60.921C190.122 60.9184 190 60.8913 189.886 60.8415C189.772 60.7916 189.67 60.7199 189.584 60.6303C189.498 60.5408 189.431 60.4353 189.386 60.3197C189.341 60.2042 189.319 60.0809 189.322 59.9569V59.1335C189.329 58.8825 189.435 58.6445 189.617 58.4714C189.799 58.2983 190.042 58.2042 190.293 58.2096C190.544 58.2166 190.782 58.3227 190.955 58.5045C191.128 58.6864 191.223 58.9293 191.217 59.1804V59.9971C191.21 60.2481 191.104 60.4861 190.922 60.6592C190.74 60.8323 190.497 60.9264 190.246 60.921Z" fill="#38303B"/>
<path d="M190.246 60.921C190.122 60.9184 190 60.8913 189.886 60.8415C189.772 60.7916 189.67 60.7199 189.584 60.6303C189.498 60.5408 189.431 60.4353 189.386 60.3197C189.341 60.2042 189.319 60.0809 189.322 59.9569V59.1335C189.329 58.8825 189.435 58.6445 189.617 58.4714C189.799 58.2983 190.042 58.2042 190.293 58.2096C190.544 58.2166 190.782 58.3227 190.955 58.5045C191.128 58.6864 191.223 58.9293 191.217 59.1804V59.9971C191.21 60.2481 191.104 60.4861 190.922 60.6592C190.74 60.8323 190.497 60.9264 190.246 60.921Z" fill="#38303B"/>
<path d="M186.729 62.8491C186.605 62.8465 186.483 62.8194 186.369 62.7696C186.256 62.7197 186.153 62.648 186.067 62.5585C185.981 62.4689 185.914 62.3634 185.869 62.2478C185.824 62.1323 185.802 62.009 185.805 61.885V61.0616C185.812 60.8118 185.917 60.5748 186.097 60.4019C186.278 60.229 186.519 60.1341 186.769 60.1377C187.02 60.1447 187.259 60.2508 187.432 60.4326C187.605 60.6145 187.699 60.8574 187.694 61.1085V61.9252C187.687 62.175 187.582 62.412 187.401 62.5849C187.22 62.7578 186.979 62.8527 186.729 62.8491Z" fill="#38303B"/>
<path d="M186.729 62.8491C186.605 62.8465 186.483 62.8194 186.369 62.7696C186.256 62.7197 186.153 62.648 186.067 62.5585C185.981 62.4689 185.914 62.3634 185.869 62.2478C185.824 62.1323 185.802 62.009 185.805 61.885V61.0616C185.812 60.8118 185.917 60.5748 186.097 60.4019C186.278 60.229 186.519 60.1341 186.769 60.1377C187.02 60.1447 187.259 60.2508 187.432 60.4326C187.605 60.6145 187.699 60.8574 187.694 61.1085V61.9252C187.687 62.175 187.582 62.412 187.401 62.5849C187.22 62.7578 186.979 62.8527 186.729 62.8491Z" fill="#38303B"/>
<path d="M183.212 64.7905C183.088 64.7879 182.966 64.7609 182.853 64.711C182.739 64.6612 182.636 64.5894 182.55 64.4999C182.465 64.4104 182.397 64.3048 182.352 64.1893C182.307 64.0737 182.285 63.9504 182.288 63.8265V63.003C182.29 62.8788 182.316 62.7562 182.366 62.6422C182.415 62.5283 182.487 62.4253 182.577 62.3394C182.667 62.2534 182.773 62.1861 182.889 62.1415C183.005 62.0968 183.128 62.0756 183.253 62.0792C183.504 62.0862 183.742 62.1922 183.915 62.3741C184.088 62.5559 184.182 62.7989 184.177 63.0499V63.8666C184.175 63.9909 184.149 64.1135 184.099 64.2275C184.05 64.3414 183.978 64.4444 183.888 64.5303C183.798 64.6163 183.692 64.6836 183.576 64.7282C183.46 64.7729 183.337 64.7941 183.212 64.7905Z" fill="#38303B"/>
<path d="M183.212 64.7905C183.088 64.7879 182.966 64.7609 182.853 64.711C182.739 64.6612 182.636 64.5894 182.55 64.4999C182.465 64.4104 182.397 64.3048 182.352 64.1893C182.307 64.0737 182.285 63.9504 182.288 63.8265V63.003C182.29 62.8788 182.316 62.7562 182.366 62.6422C182.415 62.5283 182.487 62.4253 182.577 62.3394C182.667 62.2534 182.773 62.1861 182.889 62.1415C183.005 62.0968 183.128 62.0756 183.253 62.0792C183.504 62.0862 183.742 62.1922 183.915 62.3741C184.088 62.5559 184.182 62.7989 184.177 63.0499V63.8666C184.175 63.9909 184.149 64.1135 184.099 64.2275C184.05 64.3414 183.978 64.4444 183.888 64.5303C183.798 64.6163 183.692 64.6836 183.576 64.7282C183.46 64.7729 183.337 64.7941 183.212 64.7905Z" fill="#38303B"/>
<path d="M179.689 66.7319C179.438 66.7249 179.2 66.6189 179.027 66.437C178.853 66.2552 178.759 66.0122 178.765 65.7612V64.9445C178.772 64.6935 178.878 64.4555 179.06 64.2824C179.242 64.1093 179.485 64.0152 179.736 64.0206C179.987 64.0276 180.225 64.1336 180.398 64.3155C180.572 64.4974 180.666 64.7403 180.66 64.9913V65.8081C180.653 66.059 180.547 66.297 180.365 66.4701C180.183 66.6432 179.94 66.7373 179.689 66.7319Z" fill="#38303B"/>
<path d="M179.689 66.7319C179.438 66.7249 179.2 66.6189 179.027 66.437C178.853 66.2552 178.759 66.0122 178.765 65.7612V64.9445C178.772 64.6935 178.878 64.4555 179.06 64.2824C179.242 64.1093 179.485 64.0152 179.736 64.0206C179.987 64.0276 180.225 64.1336 180.398 64.3155C180.572 64.4974 180.666 64.7403 180.66 64.9913V65.8081C180.653 66.059 180.547 66.297 180.365 66.4701C180.183 66.6432 179.94 66.7373 179.689 66.7319Z" fill="#38303B"/>
<path d="M176.172 68.6734C175.921 68.6664 175.683 68.5604 175.51 68.3785C175.337 68.1966 175.242 67.9537 175.248 67.7027V66.8859C175.25 66.7614 175.278 66.6386 175.328 66.5246C175.378 66.4106 175.451 66.3077 175.541 66.2218C175.631 66.136 175.738 66.0688 175.854 66.0242C175.97 65.9796 176.094 65.9585 176.219 65.9621C176.47 65.9691 176.708 66.0751 176.882 66.2569C177.055 66.4388 177.149 66.6818 177.143 66.9328V67.7495C177.136 68.0005 177.03 68.2385 176.848 68.4116C176.666 68.5847 176.423 68.6788 176.172 68.6734Z" fill="#38303B"/>
<path d="M176.172 68.6734C175.921 68.6664 175.683 68.5604 175.51 68.3785C175.337 68.1966 175.242 67.9537 175.248 67.7027V66.8859C175.25 66.7614 175.278 66.6386 175.328 66.5246C175.378 66.4106 175.451 66.3077 175.541 66.2218C175.631 66.136 175.738 66.0688 175.854 66.0242C175.97 65.9796 176.094 65.9585 176.219 65.9621C176.47 65.9691 176.708 66.0751 176.882 66.2569C177.055 66.4388 177.149 66.6818 177.143 66.9328V67.7495C177.136 68.0005 177.03 68.2385 176.848 68.4116C176.666 68.5847 176.423 68.6788 176.172 68.6734Z" fill="#38303B"/>
<path d="M172.656 70.6149C172.404 70.6078 172.166 70.5018 171.993 70.32C171.82 70.1381 171.726 69.8951 171.731 69.6441V68.8274C171.733 68.7031 171.759 68.5805 171.809 68.4666C171.858 68.3526 171.93 68.2497 172.02 68.1637C172.11 68.0777 172.216 68.0105 172.332 67.9658C172.448 67.9211 172.571 67.9 172.696 67.9035C172.947 67.9105 173.185 68.0165 173.358 68.1984C173.531 68.3803 173.626 68.6232 173.62 68.8742V69.691C173.618 69.8152 173.592 69.9379 173.542 70.0518C173.493 70.1658 173.421 70.2687 173.331 70.3547C173.242 70.4406 173.136 70.5079 173.02 70.5526C172.904 70.5972 172.78 70.6184 172.656 70.6149Z" fill="#38303B"/>
<path d="M172.656 70.6149C172.404 70.6078 172.166 70.5018 171.993 70.32C171.82 70.1381 171.726 69.8951 171.731 69.6441V68.8274C171.733 68.7031 171.759 68.5805 171.809 68.4666C171.858 68.3526 171.93 68.2497 172.02 68.1637C172.11 68.0777 172.216 68.0105 172.332 67.9658C172.448 67.9211 172.571 67.9 172.696 67.9035C172.947 67.9105 173.185 68.0165 173.358 68.1984C173.531 68.3803 173.626 68.6232 173.62 68.8742V69.691C173.618 69.8152 173.592 69.9379 173.542 70.0518C173.493 70.1658 173.421 70.2687 173.331 70.3547C173.242 70.4406 173.136 70.5079 173.02 70.5526C172.904 70.5972 172.78 70.6184 172.656 70.6149Z" fill="#38303B"/>
<path d="M169.132 72.5563C168.881 72.5493 168.643 72.4433 168.47 72.2614C168.297 72.0795 168.202 71.8366 168.208 71.5856V70.7688C168.215 70.5178 168.321 70.2798 168.503 70.1067C168.685 69.9337 168.928 69.8395 169.179 69.8449C169.43 69.852 169.668 69.958 169.841 70.1398C170.015 70.3217 170.109 70.5647 170.103 70.8157V71.6324C170.101 71.757 170.074 71.8798 170.023 71.9937C169.973 72.1077 169.901 72.2106 169.81 72.2965C169.72 72.3824 169.614 72.4496 169.497 72.4941C169.381 72.5387 169.257 72.5598 169.132 72.5563Z" fill="#38303B"/>
<path d="M169.132 72.5563C168.881 72.5493 168.643 72.4433 168.47 72.2614C168.297 72.0795 168.202 71.8366 168.208 71.5856V70.7688C168.215 70.5178 168.321 70.2798 168.503 70.1067C168.685 69.9337 168.928 69.8395 169.179 69.8449C169.43 69.852 169.668 69.958 169.841 70.1398C170.015 70.3217 170.109 70.5647 170.103 70.8157V71.6324C170.101 71.757 170.074 71.8798 170.023 71.9937C169.973 72.1077 169.901 72.2106 169.81 72.2965C169.72 72.3824 169.614 72.4496 169.497 72.4941C169.381 72.5387 169.257 72.5598 169.132 72.5563Z" fill="#38303B"/>
<path d="M165.615 74.4977C165.364 74.4907 165.126 74.3847 164.953 74.2028C164.78 74.021 164.686 73.778 164.691 73.527V72.7103C164.698 72.4593 164.804 72.2213 164.986 72.0482C165.168 71.8751 165.411 71.781 165.662 71.7864C165.913 71.7934 166.152 71.8994 166.325 72.0813C166.498 72.2632 166.592 72.5061 166.587 72.7571V73.5739C166.58 73.8249 166.474 74.0629 166.292 74.2359C166.11 74.409 165.867 74.5031 165.615 74.4977Z" fill="#38303B"/>
<path d="M165.615 74.4977C165.364 74.4907 165.126 74.3847 164.953 74.2028C164.78 74.021 164.686 73.778 164.691 73.527V72.7103C164.698 72.4593 164.804 72.2213 164.986 72.0482C165.168 71.8751 165.411 71.781 165.662 71.7864C165.913 71.7934 166.152 71.8994 166.325 72.0813C166.498 72.2632 166.592 72.5061 166.587 72.7571V73.5739C166.58 73.8249 166.474 74.0629 166.292 74.2359C166.11 74.409 165.867 74.5031 165.615 74.4977Z" fill="#38303B"/>
<path d="M162.099 76.4392C161.848 76.4322 161.609 76.3262 161.436 76.1443C161.263 75.9624 161.169 75.7195 161.174 75.4685V74.6517C161.176 74.5275 161.202 74.4048 161.252 74.2909C161.302 74.177 161.373 74.074 161.463 73.988C161.553 73.9021 161.659 73.8348 161.775 73.7901C161.891 73.7455 162.015 73.7243 162.139 73.7279C162.39 73.7349 162.628 73.8409 162.801 74.0228C162.975 74.2046 163.069 74.4476 163.063 74.6986V75.5153C163.062 75.6396 163.035 75.7622 162.986 75.8762C162.936 75.9901 162.864 76.0931 162.774 76.179C162.685 76.265 162.579 76.3323 162.463 76.3769C162.347 76.4216 162.223 76.4428 162.099 76.4392Z" fill="#38303B"/>
<path d="M162.099 76.4392C161.848 76.4322 161.609 76.3262 161.436 76.1443C161.263 75.9624 161.169 75.7195 161.174 75.4685V74.6517C161.176 74.5275 161.202 74.4048 161.252 74.2909C161.302 74.177 161.373 74.074 161.463 73.988C161.553 73.9021 161.659 73.8348 161.775 73.7901C161.891 73.7455 162.015 73.7243 162.139 73.7279C162.39 73.7349 162.628 73.8409 162.801 74.0228C162.975 74.2046 163.069 74.4476 163.063 74.6986V75.5153C163.062 75.6396 163.035 75.7622 162.986 75.8762C162.936 75.9901 162.864 76.0931 162.774 76.179C162.685 76.265 162.579 76.3323 162.463 76.3769C162.347 76.4216 162.223 76.4428 162.099 76.4392Z" fill="#38303B"/>
<path d="M158.582 78.3806C158.331 78.3736 158.093 78.2676 157.919 78.0857C157.746 77.9039 157.652 77.6609 157.657 77.4099V76.5932C157.664 76.3422 157.771 76.1042 157.953 75.9311C158.134 75.758 158.378 75.6639 158.629 75.6693C158.753 75.6719 158.876 75.6991 158.99 75.7494C159.104 75.7997 159.207 75.872 159.293 75.9623C159.379 76.0525 159.446 76.1589 159.491 76.2752C159.536 76.3915 159.557 76.5155 159.553 76.64V77.4568C159.551 77.5813 159.523 77.7041 159.473 77.8181C159.423 77.9321 159.35 78.035 159.26 78.1208C159.17 78.2067 159.063 78.2739 158.947 78.3185C158.831 78.3631 158.706 78.3842 158.582 78.3806Z" fill="#38303B"/>
<path d="M158.582 78.3806C158.331 78.3736 158.093 78.2676 157.919 78.0857C157.746 77.9039 157.652 77.6609 157.657 77.4099V76.5932C157.664 76.3422 157.771 76.1042 157.953 75.9311C158.134 75.758 158.378 75.6639 158.629 75.6693C158.753 75.6719 158.876 75.6991 158.99 75.7494C159.104 75.7997 159.207 75.872 159.293 75.9623C159.379 76.0525 159.446 76.1589 159.491 76.2752C159.536 76.3915 159.557 76.5155 159.553 76.64V77.4568C159.551 77.5813 159.523 77.7041 159.473 77.8181C159.423 77.9321 159.35 78.035 159.26 78.1208C159.17 78.2067 159.063 78.2739 158.947 78.3185C158.831 78.3631 158.706 78.3842 158.582 78.3806Z" fill="#38303B"/>
<path d="M155.059 80.3355C154.807 80.3284 154.569 80.2224 154.396 80.0406C154.223 79.8587 154.129 79.6157 154.134 79.3647V78.548C154.141 78.297 154.247 78.059 154.429 77.8859C154.611 77.7128 154.854 77.6187 155.105 77.6241C155.229 77.6267 155.352 77.6537 155.465 77.7036C155.579 77.7535 155.682 77.8252 155.767 77.9147C155.853 78.0043 155.921 78.1098 155.966 78.2254C156.011 78.3409 156.032 78.4642 156.03 78.5882V79.4116C156.023 79.6626 155.917 79.9006 155.735 80.0737C155.553 80.2467 155.31 80.3409 155.059 80.3355Z" fill="#38303B"/>
<path d="M155.059 80.3355C154.807 80.3284 154.569 80.2224 154.396 80.0406C154.223 79.8587 154.129 79.6157 154.134 79.3647V78.548C154.141 78.297 154.247 78.059 154.429 77.8859C154.611 77.7128 154.854 77.6187 155.105 77.6241C155.229 77.6267 155.352 77.6537 155.465 77.7036C155.579 77.7535 155.682 77.8252 155.767 77.9147C155.853 78.0043 155.921 78.1098 155.966 78.2254C156.011 78.3409 156.032 78.4642 156.03 78.5882V79.4116C156.023 79.6626 155.917 79.9006 155.735 80.0737C155.553 80.2467 155.31 80.3409 155.059 80.3355Z" fill="#38303B"/>
<path d="M151.542 82.2635C151.291 82.2565 151.053 82.1505 150.879 81.9687C150.706 81.7868 150.612 81.5438 150.617 81.2928V80.4761C150.62 80.3521 150.647 80.2299 150.697 80.1163C150.747 80.0028 150.819 79.9002 150.908 79.8144C150.998 79.7286 151.103 79.6613 151.219 79.6163C151.335 79.5713 151.458 79.5496 151.582 79.5522C151.706 79.5548 151.828 79.5818 151.942 79.6317C152.056 79.6816 152.158 79.7533 152.244 79.8428C152.33 79.9324 152.397 80.0379 152.442 80.1535C152.487 80.269 152.509 80.3923 152.506 80.5162V81.3397C152.499 81.5895 152.394 81.8265 152.214 81.9994C152.033 82.1723 151.792 82.2672 151.542 82.2635Z" fill="#38303B"/>
<path d="M151.542 82.2635C151.291 82.2565 151.053 82.1505 150.879 81.9687C150.706 81.7868 150.612 81.5438 150.617 81.2928V80.4761C150.62 80.3521 150.647 80.2299 150.697 80.1163C150.747 80.0028 150.819 79.9002 150.908 79.8144C150.998 79.7286 151.103 79.6613 151.219 79.6163C151.335 79.5713 151.458 79.5496 151.582 79.5522C151.706 79.5548 151.828 79.5818 151.942 79.6317C152.056 79.6816 152.158 79.7533 152.244 79.8428C152.33 79.9324 152.397 80.0379 152.442 80.1535C152.487 80.269 152.509 80.3923 152.506 80.5162V81.3397C152.499 81.5895 152.394 81.8265 152.214 81.9994C152.033 82.1723 151.792 82.2672 151.542 82.2635Z" fill="#38303B"/>
<path d="M148.025 84.205C147.774 84.198 147.536 84.092 147.363 83.9101C147.189 83.7283 147.095 83.4853 147.101 83.2343V82.4175C147.108 82.1666 147.214 81.9286 147.396 81.7555C147.578 81.5824 147.821 81.4883 148.072 81.4937C148.196 81.4963 148.318 81.5233 148.432 81.5732C148.546 81.623 148.648 81.6948 148.734 81.7843C148.82 81.8738 148.887 81.9794 148.932 82.0949C148.977 82.2105 148.999 82.3337 148.996 82.4577V83.2812C148.989 83.5321 148.883 83.7701 148.701 83.9432C148.519 84.1163 148.276 84.2104 148.025 84.205Z" fill="#38303B"/>
<path d="M280.073 9.7471L281.245 11.7555C281.245 11.7555 297.958 1.75369 303.163 0.146973C299.986 0.466008 296.829 0.95317 293.704 1.60641C290.054 2.4901 280.073 9.7471 280.073 9.7471Z" fill="#38303B"/>
<path d="M148.166 75.9973C148.166 75.9973 131.232 83.107 121.928 74.558C112.623 66.0089 98.4828 54.6749 98.4828 54.6749C98.4828 54.6749 89.6408 49.9886 86.6198 58.9661L102.033 102.374L148.166 75.9973Z" fill="#EFB93F"/>
<path d="M148.105 76.0242C148.105 76.0242 131.172 83.1339 121.861 74.5848C112.55 66.0357 98.4158 54.7017 98.4158 54.7017C98.4158 54.7017 94.0484 52.372 90.3776 54.1126C88.837 54.849 117.359 93.5708 117.359 93.5708L148.105 76.0242Z" fill="#F0EFED"/>
<path d="M81.5891 40.5759C81.5891 40.5759 69.3576 29.5097 99.9565 34.8118C130.555 40.114 232.025 51.6355 232.025 51.6355C232.025 51.6355 242.28 60.2515 181.344 72.3889L166.191 66.0759L81.5891 40.5759Z" fill="#F0EFED"/>
<path d="M99.9564 34.8119C130.562 40.094 232.018 51.6623 232.018 51.6623C232.018 51.6623 235.307 54.4205 227.101 59.0264C220.811 62.5344 69.3509 29.5298 99.9564 34.8119Z" fill="#EFB93F"/>
<path opacity="0.2" d="M81.5891 40.5759C81.5891 40.5759 77.9518 37.2822 79.5795 35.1466C80.9594 33.3658 199.041 68.4725 199.041 68.4725C193.93 69.7178 188.062 71.0165 181.317 72.3554L166.165 66.0424L81.5891 40.5759Z" fill="#F0EFED"/>
<path d="M114.358 118.535C114.358 118.535 131.446 127.58 134.38 125.759C137.314 123.938 138.125 121.581 134.42 115.496L133.623 114.251L112.463 116.848L114.358 118.535Z" fill="#F0EFED"/>
<path d="M113.93 95.3784L57.8763 89.775C57.8763 89.775 47.3999 88.6636 45.4104 90.5448C43.9501 91.9239 44.2515 94.18 47.3463 94.9834L96.6742 109.189C96.6742 109.189 118.672 97.7416 113.93 95.3784Z" fill="#F0EFED"/>
<path d="M44.6869 91.6361C44.2515 92.9081 44.9884 94.3742 47.3663 94.9834L96.6742 109.189C96.6742 109.189 100.184 107.369 104.096 105.025C104.096 105.025 44.8209 91.2411 44.6869 91.6361Z" fill="#EFB93F"/>
<path d="M188.384 58.9126C188.384 58.9126 185.905 53.3828 188.638 49.8882C190.775 47.1568 207.923 38.1592 207.923 38.1592C207.923 38.1592 213.952 35.1131 219.043 41.3391C224.134 47.5652 218.661 53.0481 218.661 53.0481C218.661 53.0481 195.216 71.4985 188.384 58.9126Z" fill="white"/>
<path opacity="0.16" d="M188.384 58.9126L219.043 41.3392C224.134 47.5585 218.661 53.0481 218.661 53.0481C218.661 53.0481 195.216 71.4986 188.384 58.9126Z" fill="#CCCCCC"/>
<path d="M218.661 53.0481C218.661 53.0481 224.134 47.5585 219.043 41.3392C213.952 35.1198 207.923 38.1592 207.923 38.1592C207.923 38.1592 204.641 50.0623 218.661 53.0481Z" fill="#E5622C"/>
<path d="M207.923 40.7902C207.923 40.7902 212.19 37.7843 216.544 42.4505C220.898 47.1167 219.304 49.8146 218.152 51.823C218.152 51.8029 209.625 51.8632 207.923 40.7902Z" fill="#38303B"/>
<path d="M209.879 37.5634C209.202 37.6764 208.542 37.8766 207.917 38.1592C207.335 38.6345 206.937 39.2972 206.791 40.0337C206.45 43.381 207.495 50.8188 217.294 53.3226C217.524 53.3781 217.763 53.3822 217.995 53.3348C218.227 53.2873 218.445 53.1894 218.634 53.0481C219.49 52.1803 220.158 51.1457 220.597 50.0087C220.557 50.0087 220.068 51.4481 218.721 51.5418C216.893 51.669 213.53 50.5978 210.978 47.1568C209.096 44.6195 208.097 41.7274 208.211 39.9333C208.21 39.4144 208.37 38.9079 208.669 38.4836C208.967 38.0592 209.39 37.7377 209.879 37.5634Z" fill="#EB9875"/>
<path d="M188.384 58.9929C188.384 58.9929 185.905 53.4631 188.638 49.9685C189.123 49.4585 189.652 48.9925 190.219 48.576C188.055 62.2599 201.52 62.5076 201.52 62.5076C194.66 64.7102 190.433 62.7687 188.384 58.9929Z" fill="#E5622C"/>
<path d="M255.717 89.8151C255.717 89.8151 253.56 84.9883 255.945 81.9355C257.807 79.5522 272.785 71.6927 272.785 71.6927C272.785 71.6927 278.043 69.0148 282.491 74.4643C286.939 79.9137 282.163 84.6937 282.163 84.6937C282.163 84.6937 261.686 100.808 255.717 89.8151Z" fill="white"/>
<path opacity="0.16" d="M255.717 89.8151L282.511 74.4643C286.966 79.9003 282.183 84.6937 282.183 84.6937C282.183 84.6937 261.706 100.808 255.737 89.8151" fill="#CCCCCC"/>
<path d="M282.163 84.6937C282.163 84.6937 286.946 79.9003 282.491 74.4642C278.037 69.0282 272.785 71.6927 272.785 71.6927C272.785 71.6927 269.918 82.0895 282.163 84.6937Z" fill="#E5622C"/>
<path d="M272.785 73.9956C272.785 73.9956 276.516 71.3647 280.314 75.4417C284.112 79.5187 282.726 81.8886 281.721 83.6025C281.721 83.6025 274.265 83.6828 272.785 73.9956Z" fill="#38303B"/>
<path d="M274.5 71.1705C273.908 71.2695 273.332 71.445 272.785 71.6927C272.276 72.1056 271.928 72.6835 271.8 73.3262C271.506 76.2317 272.417 82.7523 280.971 84.9347C281.175 84.9849 281.388 84.9893 281.594 84.9476C281.8 84.9059 281.994 84.8192 282.163 84.6937C282.902 83.9277 283.472 83.0155 283.838 82.0159C283.706 82.3622 283.486 82.6681 283.199 82.903C282.912 83.1379 282.569 83.2937 282.203 83.3548C280.602 83.4619 277.668 82.5247 275.444 79.5255C273.797 77.3095 272.926 74.7856 273.02 73.2124C273.027 72.7615 273.174 72.324 273.438 71.9588C273.703 71.5936 274.074 71.3185 274.5 71.1705Z" fill="#EB9875"/>
<path d="M255.717 89.8887C255.717 89.8887 253.56 85.0619 255.945 82.0091C256.366 81.561 256.828 81.153 257.325 80.7907C255.436 92.734 267.192 92.9616 267.192 92.9616C261.203 94.8829 257.512 93.1825 255.717 89.8887Z" fill="#E5622C"/>
<defs>
<linearGradient id="paint0_linear" x1="16504.5" y1="1804.39" x2="19330" y2="8202.28" gradientUnits="userSpaceOnUse">
<stop stop-color="#D5DEFF"/>
<stop offset="1" stop-color="#281B9A"/>
</linearGradient>
</defs>
</svg>
